<svg width="41" height="40" viewBox="0 0 41 40" fill="none" xmlns="http://www.w3.org/2000/svg">
<path fill-rule="evenodd" clip-rule="evenodd" d="M8.5 4C8.5 6.20914 6.70914 8 4.5 8C2.29086 8 0.5 6.20914 0.5 4C0.5 1.79086 2.29086 0 4.5 0C6.70914 0 8.5 1.79086 8.5 4ZM8.5 20C8.5 22.2091 6.70914 24 4.5 24C2.29086 24 0.5 22.2091 0.5 20C0.5 17.7909 2.29086 16 4.5 16C6.70914 16 8.5 17.7909 8.5 20ZM4.5 40C6.70914 40 8.5 38.2091 8.5 36C8.5 33.7909 6.70914 32 4.5 32C2.29086 32 0.5 33.7909 0.5 36C0.5 38.2091 2.29086 40 4.5 40ZM24.5 4C24.5 6.20914 22.7091 8 20.5 8C18.2909 8 16.5 6.20914 16.5 4C16.5 1.79086 18.2909 0 20.5 0C22.7091 0 24.5 1.79086 24.5 4ZM20.5 24C22.7091 24 24.5 22.2091 24.5 20C24.5 17.7909 22.7091 16 20.5 16C18.2909 16 16.5 17.7909 16.5 20C16.5 22.2091 18.2909 24 20.5 24ZM24.5 36C24.5 38.2091 22.7091 40 20.5 40C18.2909 40 16.5 38.2091 16.5 36C16.5 33.7909 18.2909 32 20.5 32C22.7091 32 24.5 33.7909 24.5 36ZM36.5 8C38.7091 8 40.5 6.20914 40.5 4C40.5 1.79086 38.7091 0 36.5 0C34.2909 0 32.5 1.79086 32.5 4C32.5 6.20914 34.2909 8 36.5 8ZM40.5 20C40.5 22.2091 38.7091 24 36.5 24C34.2909 24 32.5 22.2091 32.5 20C32.5 17.7909 34.2909 16 36.5 16C38.7091 16 40.5 17.7909 40.5 20ZM36.5 40C38.7091 40 40.5 38.2091 40.5 36C40.5 33.7909 38.7091 32 36.5 32C34.2909 32 32.5 33.7909 32.5 36C32.5 38.2091 34.2909 40 36.5 40Z" fill="#3D5AFE"/>
</svg>
