<svg width="80" height="80" viewBox="0 0 80 80" fill="none" xmlns="http://www.w3.org/2000/svg">
<path fill-rule="evenodd" clip-rule="evenodd" d="M5.5814 40C5.5814 20.9911 20.9911 5.5814 40 5.5814C59.0089 5.5814 74.4186 20.9911 74.4186 40C74.4186 59.0089 59.0089 74.4186 40 74.4186C20.9911 74.4186 5.5814 59.0089 5.5814 40ZM40 0C17.9086 0 0 17.9086 0 40C0 62.0914 17.9086 80 40 80C62.0914 80 80 62.0914 80 40C80 17.9086 62.0914 0 40 0ZM42.7904 17.6744C42.7904 16.1332 41.5409 14.8837 39.9997 14.8837C38.4584 14.8837 37.209 16.1332 37.209 17.6744V40C37.209 41.057 37.8062 42.0234 38.7516 42.4961L53.6354 49.9379C55.0139 50.6272 56.6902 50.0684 57.3795 48.6899C58.0688 47.3114 57.51 45.6351 56.1314 44.9458L42.7904 38.2753V17.6744Z" fill="#3D5AFE"/>
</svg>
