<svg width="80" height="80" viewBox="0 0 80 80" fill="none" xmlns="http://www.w3.org/2000/svg">
<path fill-rule="evenodd" clip-rule="evenodd" d="M46.1057 2.48281C46.2762 0.950976 47.6584 -0.152865 49.193 0.0173088C57.0521 0.888841 64.3808 4.40201 69.9757 9.97997C75.5706 15.5579 79.0993 22.8692 79.9823 30.7132C80.1547 32.2448 79.0506 33.6259 77.5163 33.798C75.9819 33.9701 74.5983 32.868 74.4259 31.3364C73.6846 24.7507 70.722 18.6123 66.0245 13.9291C61.3271 9.2459 55.174 6.29629 48.5756 5.56456C47.0411 5.39439 45.9353 4.01464 46.1057 2.48281ZM23.4928 10.1821C22.6964 9.49838 21.6781 9.12707 20.6277 9.13739L20.6001 9.13753H9.91483C9.31428 9.13826 8.72045 9.26373 8.17109 9.50595C7.62136 9.74834 7.12822 10.1023 6.72305 10.5454C6.31788 10.9885 6.00958 11.5109 5.81775 12.0794C5.628 12.6418 5.55635 13.2371 5.60718 13.8282C6.73302 24.3749 10.3299 34.5092 16.107 43.4111L16.1202 43.4317C21.3693 51.6776 28.3729 58.6687 36.6334 63.9084L36.6552 63.9224C45.5315 69.6684 55.6333 73.2579 66.1501 74.403C66.7431 74.4534 67.3403 74.3813 67.9042 74.1909C68.4753 73.9981 68.9997 73.6884 69.4438 73.2816C69.888 72.8748 70.2422 72.3799 70.4837 71.8286C70.7252 71.2773 70.8487 70.6817 70.8462 70.08L70.8462 70.0686V59.4009C70.8462 59.3874 70.8463 59.3738 70.8465 59.3603C70.8466 59.3507 70.8468 59.3412 70.847 59.3317C70.8734 58.2721 70.5087 57.2398 69.8223 56.4311C69.1382 55.6252 68.1822 55.0974 67.1351 54.9473C63.5109 54.4691 59.9525 53.5837 56.5275 52.3079L56.5212 52.3055C55.7465 52.0148 54.9046 51.9519 54.0952 52.1243C53.288 52.2961 52.5468 52.6947 51.9591 53.2731C51.9575 53.2747 51.9559 53.2762 51.9543 53.2778L47.4414 57.7828C46.5515 58.6711 45.1767 58.8564 44.0827 58.2354C34.727 52.9251 26.9807 45.1925 21.6609 35.8535C21.0388 34.7614 21.2244 33.389 22.1143 32.5007L26.632 27.991C27.2114 27.4044 27.6107 26.6645 27.7829 25.8587C27.9555 25.0508 27.8925 24.2103 27.6013 23.437L27.5989 23.4307C26.3209 20.0119 25.434 16.46 24.9549 12.8424C24.8057 11.8085 24.2864 10.8634 23.4928 10.1821ZM20.5875 3.55615C22.9894 3.53615 25.3172 4.38676 27.1386 5.95038C28.9637 7.51722 30.1559 9.69309 30.4928 12.0724L30.4963 12.0981C30.9196 15.302 31.7045 18.4479 32.836 21.4758C33.5025 23.2472 33.6466 25.1722 33.2512 27.0229C32.8557 28.8745 31.9366 30.5741 30.603 31.9203L30.592 31.9314L27.6049 34.9131C31.9972 41.9671 37.9582 47.9174 45.0247 52.3019L48.0118 49.3201L48.0229 49.3091C49.3714 47.9779 51.0741 47.0605 52.929 46.6656C54.7825 46.271 56.7105 46.4147 58.4848 47.0797C61.5184 48.2094 64.6703 48.9931 67.8804 49.4157L67.9053 49.4191C70.3148 49.7584 72.5152 50.9699 74.0882 52.8231C75.6531 54.6667 76.4884 57.0176 76.4375 59.4327V70.0629C76.4423 71.44 76.1594 72.8029 75.6067 74.0646C75.0533 75.328 74.2417 76.4622 73.2237 77.3944C72.2058 78.3266 71.0041 79.0363 69.6955 79.4781C68.3869 79.9198 67.0003 80.0839 65.6245 79.9598C65.6077 79.9583 65.5909 79.9566 65.5742 79.9548C54.1822 78.7192 43.2393 74.8344 33.6239 68.6124C24.6787 62.9361 17.094 55.3649 11.4077 46.4355C5.15256 36.7935 1.25977 25.8165 0.0445451 14.3934C0.0430028 14.3789 0.0415742 14.3644 0.0402595 14.3499C-0.0836904 12.9807 0.0793197 11.6007 0.518908 10.2979C0.958496 8.99504 1.66503 7.79783 2.59353 6.78249C3.52203 5.76715 4.65215 4.95592 5.91194 4.40045C7.17173 3.84498 8.53358 3.55745 9.91079 3.55615L20.5875 3.55615ZM46.1404 16.4802C46.436 14.9674 47.9042 13.9804 49.4197 14.2755C53.4451 15.0595 57.1447 17.0247 60.0448 19.9197C62.9449 22.8147 64.9137 26.5076 65.6991 30.526C65.9947 32.0387 65.0059 33.5043 63.4905 33.7994C61.9751 34.0946 60.5069 33.1075 60.2112 31.5948C59.6389 28.6667 58.2044 25.9758 56.0911 23.8663C53.9779 21.7569 51.2822 20.3249 48.3489 19.7536C46.8335 19.4585 45.8447 17.9929 46.1404 16.4802Z" fill="#3D5AFE"/>
</svg>
