<svg width="68" height="80" viewBox="0 0 68 80" fill="none" xmlns="http://www.w3.org/2000/svg">
<path fill-rule="evenodd" clip-rule="evenodd" d="M13.957 13.689C19.2687 8.50043 26.478 5.58139 34 5.58139C41.522 5.58139 48.7313 8.50043 54.043 13.689C59.354 18.8768 62.3333 25.9081 62.3333 33.2347C62.3333 43.9436 55.2154 54.2542 47.5346 62.1738C43.7535 66.0723 39.9627 69.262 37.1138 71.4779C35.8622 72.4515 34.7969 73.2336 34 73.8018C33.2031 73.2336 32.1378 72.4515 30.8862 71.4779C28.0373 69.262 24.2465 66.0723 20.4654 62.1738C12.7846 54.2542 5.66667 43.9436 5.66667 33.2347C5.66667 25.9081 8.64602 18.8768 13.957 13.689ZM32.4358 79.5361C32.4366 79.5367 32.4374 79.5372 34 77.2093L32.4374 79.5372C33.3849 80.1542 34.6151 80.1542 35.5626 79.5372L34 77.2093C35.5626 79.5372 35.5634 79.5367 35.5642 79.5361L35.5665 79.5346L35.5733 79.5302L35.5952 79.5158L35.6723 79.4649C35.7382 79.4212 35.8328 79.358 35.9542 79.2759C36.1969 79.1117 36.547 78.8716 36.989 78.5597C37.8728 77.9362 39.1261 77.0247 40.6258 75.8582C43.6206 73.5287 47.6215 70.1644 51.6321 66.0291C59.5346 57.881 68 46.2044 68 33.2347C68 24.4128 64.4121 15.9569 58.0333 9.72604C51.6553 3.49592 43.0098 0 34 0C24.9902 0 16.3447 3.49592 9.9667 9.72604C3.58789 15.9569 0 24.4128 0 33.2347C0 46.2044 8.4654 57.881 16.3679 66.0291C20.3785 70.1644 24.3794 73.5287 27.3742 75.8582C28.8739 77.0247 30.1272 77.9362 31.011 78.5597C31.453 78.8716 31.8031 79.1117 32.0458 79.2759C32.1672 79.358 32.2618 79.4212 32.3277 79.4649L32.4048 79.5158L32.4267 79.5302L32.4335 79.5346L32.4358 79.5361ZM26.4442 33.0232C26.4442 29.1701 29.6155 26.0465 33.5275 26.0465C37.4395 26.0465 40.6108 29.1701 40.6108 33.0232C40.6108 36.8764 37.4395 40 33.5275 40C29.6155 40 26.4442 36.8764 26.4442 33.0232ZM33.5275 20.4651C26.4859 20.4651 20.7775 26.0876 20.7775 33.0232C20.7775 39.9589 26.4859 45.5814 33.5275 45.5814C40.5691 45.5814 46.2775 39.9589 46.2775 33.0232C46.2775 26.0876 40.5691 20.4651 33.5275 20.4651Z" fill="#3D5AFE"/>
</svg>
