<svg width="140" height="42" viewBox="0 0 140 42" fill="none" xmlns="http://www.w3.org/2000/svg">
<path fill-rule="evenodd" clip-rule="evenodd" d="M139.999 4.77697L123.739 21L139.999 37.225L135.209 42L114.165 21L135.209 -1.18628e-05L139.999 4.77697ZM95.0211 21L111.28 4.77696L106.493 -1.43733e-05L85.449 21L106.493 42L111.28 37.225L95.0211 21ZM66.6491 21L82.909 4.77696L78.1241 -1.68534e-05L57.08 21L78.1241 42L82.909 37.225L66.6491 21ZM9.56903 21L25.828 4.77696L21.043 -2.18436e-05L-5.91993e-05 21L21.043 42L25.8279 37.225L9.56903 21ZM54.1951 4.77696L37.936 21L54.1951 37.225L49.4079 42L28.364 21L49.4079 -1.93638e-05L54.1951 4.77696Z" fill="#1DE9B6"/>
</svg>
