<svg width="160" height="70" viewBox="0 0 160 70" fill="none" xmlns="http://www.w3.org/2000/svg">
<path d="M19.7148 21C20.9766 21 22.1413 21.0999 23.2089 21.3957C24.2766 21.5936 25.1501 21.9894 25.9266 22.484C26.7031 22.9787 27.2854 23.6713 27.6737 24.5627C28.0619 25.4521 28.256 26.5414 28.256 27.7287C28.256 29.1128 27.9648 30.301 27.2854 31.1914C26.7031 32.0809 25.7325 32.8724 24.5678 33.466C26.2178 33.9607 27.4795 34.8501 28.256 36.0383C29.0325 37.2256 29.5178 38.7096 29.5178 40.3915C29.5178 41.7757 29.2266 42.9639 28.7413 43.9533C28.256 44.9426 27.4795 45.833 26.606 46.4267C25.7325 47.0213 24.6648 47.516 23.5001 47.8118C22.3354 48.1076 21.1707 48.3065 20.006 48.3065H7V21H19.7148ZM18.9383 32.0809C20.006 32.0809 20.8795 31.7841 21.5589 31.2894C22.2383 30.7947 22.5295 29.9043 22.5295 28.816C22.5295 28.2224 22.4325 27.6287 22.2383 27.233C22.0442 26.8372 21.753 26.5404 21.3648 26.2436C20.9766 26.0458 20.5883 25.8479 20.103 25.7489C19.6177 25.65 19.1324 25.65 18.5501 25.65H12.9206V32.0809H18.9383ZM19.2295 43.7554C19.8119 43.7554 20.3942 43.6564 20.8795 43.5585C21.3648 43.4586 21.8501 43.2607 22.2383 42.9639C22.6266 42.6671 22.9178 42.3703 23.2089 41.8756C23.4031 41.3809 23.5972 40.7863 23.5972 40.0947C23.5972 38.7096 23.2089 37.7203 22.4325 37.0267C21.656 36.4331 20.5883 36.1373 19.3266 36.1373H12.9206V43.7554H19.2295ZM37.962 43.6564C38.7384 44.4479 39.9032 44.8437 41.4561 44.8437C42.5238 44.8437 43.4944 44.5469 44.2708 44.0522C45.0473 43.4576 45.5326 42.865 45.7267 42.2703H50.4826C49.7062 44.6448 48.5415 46.3277 46.9885 47.415C45.4356 48.4044 43.5914 48.999 41.3591 48.999C39.8061 48.999 38.4473 48.7012 37.1855 48.2065C35.9237 47.7118 34.9531 47.0203 34.0796 46.0309C33.2061 45.1405 32.5266 44.0522 32.1384 42.765C31.6531 41.4789 31.459 40.0947 31.459 38.5108C31.459 37.0267 31.6531 35.6426 32.1384 34.3554C32.6237 33.0693 33.3031 31.9819 34.1767 30.9926C35.0502 30.1022 36.1178 29.3107 37.2826 28.816C38.5443 28.3213 39.8061 28.0245 41.3591 28.0245C43.0091 28.0245 44.465 28.3213 45.7267 29.0139C46.9885 29.7064 47.9591 30.4979 48.7356 31.6851C49.512 32.7734 50.0944 34.0586 50.4826 35.4447C50.6768 36.8298 50.7738 38.2149 50.6768 39.7979H36.6031C36.6031 41.3809 37.1855 42.865 37.962 43.6564ZM44.0767 33.2681C43.3973 32.5756 42.3296 32.1798 41.0679 32.1798C40.1943 32.1798 39.5149 32.3767 38.9326 32.6745C38.3502 32.9713 37.962 33.3661 37.5737 33.7628C37.1855 34.1595 36.9914 34.6532 36.8943 35.1479C36.7973 35.6426 36.7002 36.0373 36.7002 36.4341H45.4356C45.2414 34.95 44.7561 33.9607 44.0767 33.2681ZM58.2474 21V31.2894H58.3445C59.0239 30.1022 59.8974 29.3107 60.9651 28.816C62.0327 28.3213 63.0033 28.0245 64.071 28.0245C65.5269 28.0245 66.6916 28.2224 67.5651 28.6181C68.4386 29.0139 69.2151 29.6075 69.7004 30.3C70.1857 30.9926 70.574 31.883 70.7681 32.8724C70.9622 33.8617 71.0592 34.951 71.0592 36.2362V48.4054H65.721V37.2256C65.721 35.5437 65.4298 34.3564 64.9445 33.5649C64.4592 32.7734 63.5857 32.3777 62.3239 32.3777C60.868 32.3777 59.8004 32.8724 59.218 33.6649C58.5386 34.5543 58.2474 36.0383 58.2474 38.0171V48.4054H52.9091V21H58.2474ZM74.9416 31.4873C75.524 30.5968 76.2034 30.0032 77.0769 29.4086C77.9505 28.9139 78.9211 28.5192 79.9887 28.3203C81.0564 28.1224 82.1231 28.0235 83.1917 28.0235C84.1623 28.0235 85.1329 28.1224 86.2015 28.2214C87.1721 28.3203 88.1427 28.6161 88.9182 29.0129C89.7917 29.4076 90.3741 30.0022 90.9574 30.6948C91.4417 31.3883 91.7329 32.3777 91.7329 33.5649V43.9533C91.7329 44.8437 91.83 45.7341 91.927 46.5266C92.0251 47.3181 92.3143 48.0106 92.6065 48.4054H87.1711C86.976 48.2075 86.879 47.8118 86.7829 47.516C86.6858 47.2182 86.6858 46.8234 86.6858 46.5266C85.8123 47.416 84.8417 48.0106 83.677 48.4054C82.5123 48.8011 81.3476 48.9001 80.1828 48.9001C79.2122 48.9001 78.4358 48.8011 77.5622 48.5053C76.7858 48.3074 76.1063 47.9107 75.4269 47.416C74.8446 46.9213 74.3593 46.3277 73.971 45.5372C73.6799 44.7447 73.4857 43.9533 73.4857 42.865C73.4857 41.7757 73.6799 40.7863 74.0681 40.0947C74.4563 39.4022 74.9416 38.8086 75.524 38.3139C76.1063 37.9191 76.8828 37.5224 77.6593 37.3245C78.4358 37.1276 79.2122 36.9298 80.0858 36.8298L82.4152 36.533C83.1917 36.4341 83.8711 36.3351 84.4535 36.2362C85.0358 36.0383 85.5211 35.8405 85.9094 35.5437C86.2976 35.2468 86.3947 34.8511 86.3947 34.2575C86.3947 33.6639 86.2976 33.1692 86.1035 32.8724C85.9093 32.5756 85.6182 32.2788 85.327 32.0809C85.0348 31.883 84.6476 31.7841 84.2593 31.6861C83.8711 31.5862 83.3858 31.5862 82.9005 31.5862C81.8328 31.5862 81.0564 31.7841 80.474 32.2788C79.8917 32.7734 79.5034 33.5649 79.4064 34.5543H74.0681C74.0681 33.3671 74.4563 32.2788 74.9416 31.4873ZM85.5201 39.2043C85.2299 39.3032 84.8417 39.4022 84.4525 39.5011C84.0643 39.601 83.676 39.601 83.1907 39.699C82.8034 39.7979 82.3181 39.7979 81.9289 39.8969L80.7642 40.1937C80.376 40.2926 79.9878 40.4905 79.7936 40.6883C79.5025 40.8862 79.3083 41.183 79.1142 41.4798C78.824 41.8756 78.824 42.2713 78.824 42.766C78.824 43.2607 78.9211 43.6564 79.1152 43.9533C79.3093 44.2501 79.5034 44.5479 79.7946 44.7447C80.0858 44.9426 80.474 45.0425 80.8623 45.1405C81.2505 45.2384 81.6378 45.2394 82.1231 45.2394C83.1917 45.2394 83.9672 45.0425 84.5495 44.7447C85.1329 44.35 85.5201 43.9533 85.8123 43.4586C86.1035 42.9639 86.2976 42.4692 86.2976 41.9745C86.3946 41.4798 86.3947 41.0851 86.3947 40.7873V38.7096C86.1035 38.9075 85.8123 39.1064 85.5201 39.2043ZM99.7898 28.5192V31.2894H99.8869C100.565 30.1022 101.44 29.3107 102.507 28.816C103.575 28.3213 104.74 28.0245 105.807 28.0245C107.262 28.0245 108.427 28.2224 109.301 28.6181C110.271 29.0139 110.952 29.6075 111.437 30.3C111.922 30.9926 112.31 31.883 112.601 32.8724C112.795 33.8617 112.893 34.951 112.893 36.2362V48.4054H107.555V37.2256C107.555 35.5437 107.262 34.3564 106.777 33.5649C106.292 32.7734 105.418 32.2788 104.059 32.2788C102.604 32.2788 101.535 32.8724 100.857 33.7628C100.177 34.6532 99.8859 36.1373 99.8859 38.116V48.5043H94.5476V28.5192H99.7898ZM124.829 32.0809C123.957 32.0809 123.276 32.2788 122.695 32.6755C122.113 33.0702 121.627 33.5649 121.239 34.2585C120.851 34.8521 120.657 35.5446 120.462 36.3361C120.268 37.1286 120.268 37.8202 120.268 38.6127C120.268 39.3042 120.365 40.0967 120.462 40.7883C120.657 41.5808 120.85 42.1734 121.239 42.767C121.627 43.3616 122.015 43.8563 122.598 44.2511C123.18 44.6468 123.859 44.8457 124.732 44.8457C125.995 44.8457 126.966 44.4499 127.741 43.7564C128.421 43.0648 128.907 42.0754 129.004 40.7883H134.148C133.761 43.4596 132.79 45.4383 131.138 46.8244C129.489 48.2085 127.354 48.9021 124.732 48.9021C123.276 48.9021 121.917 48.6052 120.753 48.1106C119.49 47.6159 118.519 46.9233 117.647 46.0329C116.774 45.1425 116.093 44.0542 115.608 42.8669C115.122 41.5808 114.929 40.2936 114.929 38.8095C114.929 37.2266 115.122 35.8415 115.608 34.5553C116.093 33.2691 116.676 32.0819 117.549 31.0925C118.422 30.1031 119.49 29.4106 120.656 28.817C121.916 28.3223 123.275 28.0255 124.828 28.0255C125.994 28.0255 127.062 28.2233 128.128 28.5202C129.195 28.817 130.167 29.3116 130.943 29.9043C131.817 30.4989 132.496 31.2894 132.981 32.2788C133.467 33.1692 133.759 34.3564 133.855 35.6426H128.614C128.422 33.2681 127.16 32.0809 124.829 32.0809ZM35.5355 22.8798H46.4061V25.5511H35.5355V22.8798ZM142.204 43.6564C142.981 44.4479 144.242 44.8437 145.698 44.8437C146.767 44.8437 147.737 44.5469 148.513 44.0522C149.29 43.4576 149.775 42.865 149.969 42.2703H154.628C153.851 44.6448 152.687 46.3277 151.133 47.415C149.579 48.4044 147.736 48.999 145.504 48.999C143.951 48.999 142.592 48.7012 141.329 48.2065C140.135 47.7525 139.068 47.0052 138.224 46.0309C137.351 45.1405 136.671 44.0522 136.283 42.765C135.798 41.4789 135.604 40.0947 135.604 38.5108C135.604 37.0267 135.798 35.6426 136.283 34.3554C136.751 33.1146 137.442 31.974 138.321 30.9926C139.195 30.1022 140.263 29.3107 141.427 28.816C142.689 28.3213 144.048 28.0245 145.504 28.0245C147.153 28.0245 148.609 28.3213 149.774 29.0139C151.035 29.7064 152.006 30.4979 152.783 31.6851C153.56 32.7734 154.142 34.0586 154.53 35.4447C154.918 36.8288 155.016 38.3129 154.918 39.8969H140.844C140.844 41.3809 141.427 42.865 142.204 43.6564ZM148.416 33.2681C147.736 32.5756 146.668 32.1798 145.407 32.1798C144.533 32.1798 143.853 32.3767 143.271 32.6745C142.688 32.9713 142.203 33.3661 141.913 33.7628C141.622 34.1595 141.329 34.6532 141.233 35.1479C141.137 35.6426 141.04 36.0373 141.04 36.4341H149.775C149.483 34.95 148.998 33.9607 148.416 33.2681Z" fill="#616161"/>
</svg>
