<svg width="80" height="80" viewBox="0 0 80 80" fill="none" xmlns="http://www.w3.org/2000/svg">
<g clip-path="url(#clip0_3_130)">
<path d="M9.38049 65.9302H28.2721V70.6177H9.38049V65.9302Z" fill="#3D5AFE"/>
<path d="M63.5175 56.5472V47.1649H42.3438V42.4701H61.5344C68.2129 42.4701 73.6456 37.0367 73.6456 30.3589C73.6456 24.4409 69.3475 19.4769 63.7097 18.446C62.4829 12.0563 56.8927 7.3053 50.1862 7.3053C48.7122 7.3053 47.2443 7.54456 45.8508 8.00537C42.7185 3.07983 37.2247 0 31.2976 0C21.7969 0 14.0674 7.72949 14.0674 17.2302C14.0674 17.8326 14.0991 18.4351 14.1614 19.0338C9.52576 20.7819 6.35437 25.2301 6.35437 30.3589C6.35437 37.0367 11.7871 42.4701 18.4656 42.4701H37.6562V47.1649H16.4825V56.5472H0V80H37.6526V56.5472H21.17V51.8524H58.83V56.5472H42.3474V80H80V56.5472H63.5175ZM11.0419 30.3589C11.0419 26.7242 13.6389 23.6475 17.2168 23.042L19.6936 22.6233L19.1046 20.1819C18.8727 19.2188 18.7549 18.2257 18.7549 17.2302C18.7549 10.3137 24.3817 4.6875 31.2976 4.6875C36.17 4.6875 40.6415 7.547 42.688 11.9727L43.7292 14.2242L45.918 13.0566C47.2418 12.3511 48.6774 11.9928 50.1862 11.9928C55.0714 11.9928 59.0588 15.8142 59.2639 20.6915L59.3579 22.9211L61.5894 22.937C65.6525 22.9663 68.9581 26.2958 68.9581 30.3589C68.9581 34.4525 65.6281 37.7826 61.5344 37.7826H18.4656C14.3719 37.7826 11.0419 34.4519 11.0419 30.3589ZM32.9651 75.3125H4.6875V61.2347H32.9651V75.3125ZM75.3125 75.3125H47.0349V61.2347H75.3125V75.3125Z" fill="#3D5AFE"/>
<path d="M51.7279 65.9302H70.6195V70.6177H51.7279V65.9302Z" fill="#3D5AFE"/>
</g>
<defs>
<clipPath id="clip0_3_130">
<rect width="80" height="80" fill="white"/>
</clipPath>
</defs>
</svg>
