<svg width="140" height="141" viewBox="0 0 140 141" fill="none" xmlns="http://www.w3.org/2000/svg">
<path fill-rule="evenodd" clip-rule="evenodd" d="M65.1956 0.150958C66.2858 0.0757181 67.3764 0.0251891 68.4681 0.00195312L-0.00012207 68.471C0.0231139 67.3789 0.0736429 66.2871 0.148146 65.1984L65.1956 0.150958ZM77.1753 0.355143C78.104 0.449194 79.0323 0.560579 79.9596 0.692249L0.690632 79.9623C0.558224 79.0365 0.446839 78.1064 0.352051 77.1773L77.1753 0.355143ZM89.9603 2.87566C89.1463 2.63408 88.3286 2.41279 87.5087 2.20256L2.19989 87.5106C2.41086 88.3313 2.63178 89.1478 2.873 89.9622L89.9603 2.87566ZM113.917 15.4665C113.337 14.9989 112.751 14.5426 112.161 14.0971L14.0948 112.163C14.5404 112.755 14.9963 113.34 15.4636 113.919L113.917 15.4665ZM104.829 9.24642C105.486 9.62446 106.14 10.0121 106.787 10.4119L10.4096 106.791C10.0091 106.142 9.62145 105.488 9.24414 104.831L104.829 9.24642ZM98.8364 6.18271C98.1117 5.85482 97.3851 5.53948 96.6545 5.23999L5.23718 96.6565C5.53741 97.3872 5.85275 98.1138 6.1799 98.8385L98.8364 6.18271ZM118.754 19.7537L118.753 19.7529L118.72 19.7208L19.7187 118.722L19.8081 118.815C20.0337 119.049 20.2589 119.283 20.4895 119.513C20.6995 119.724 20.9121 119.929 21.1248 120.134L21.2803 120.285L120.281 21.2831C120.027 21.0179 119.772 20.7531 119.511 20.4927C119.26 20.2421 119.008 19.9986 118.754 19.7537ZM1.69238 54.5953L54.5933 1.69442C53.1822 2.01124 51.7799 2.37232 50.3876 2.77692L2.77415 50.3896C2.36954 51.7827 2.0092 53.1849 1.69238 54.5953ZM140 71.5343C139.977 72.6264 139.928 73.7163 139.853 74.8069L74.8031 139.854C73.7147 139.93 72.6226 139.978 71.5323 140.002L140 71.5343ZM139.648 62.8278C139.553 61.8976 139.441 60.9689 139.309 60.0431L60.0409 139.312C60.967 139.445 61.8957 139.554 62.8263 139.65L139.648 62.8278ZM20.4899 20.4928C24.7661 16.2148 29.4583 12.6084 34.4367 9.66854L9.66638 34.4388C12.6055 29.4612 16.2127 24.769 20.4899 20.4928ZM137.226 89.6155C137.631 88.2228 137.992 86.8202 138.309 85.4102L85.4078 138.311C86.8164 137.994 88.2205 137.633 89.6117 137.229L137.226 89.6155ZM119.511 119.513C115.233 123.789 110.542 127.397 105.563 130.337L130.333 105.565C127.395 110.544 123.787 115.236 119.511 119.513ZM130.755 35.1726C130.378 34.5154 129.992 33.8626 129.59 33.2149L33.2122 129.593C33.8599 129.993 34.5134 130.381 35.1707 130.757L130.755 35.1726ZM124.537 26.0868C125.005 26.6654 125.459 27.2504 125.906 27.8405L27.8384 125.908C27.2486 125.461 26.6629 125.006 26.0839 124.539L124.537 26.0868ZM137.8 52.4932C137.59 51.6744 137.367 50.8556 137.127 50.0427L50.0409 137.13C50.8534 137.37 51.6715 137.593 52.4914 137.803L137.8 52.4932ZM133.821 41.1668C134.147 41.8901 134.462 42.6167 134.763 43.3492L43.3463 134.766C42.6142 134.464 41.888 134.149 41.1647 133.823L133.821 41.1668Z" fill="#1DE9B6"/>
</svg>
