<svg width="194" height="44" viewBox="0 0 194 44" fill="none" xmlns="http://www.w3.org/2000/svg">
<path fill-rule="evenodd" clip-rule="evenodd" d="M144.04 3.626L160.467 20L176.901 3.627L191.391 18.067L193.201 16.245L176.901 0L160.468 16.372L144.04 0L127.61 16.372L111.189 0L97.001 14.141L98.824 15.962L111.189 3.627L127.61 20L144.04 3.626ZM160.268 40.369L176.698 24.0009L193.001 40.2459L191.191 42.0689L176.699 27.627L160.268 43.9989L143.84 27.627L127.41 43.9999L110.989 27.627L96.501 42.0789L82.009 27.6249L65.578 43.9969L49.149 27.6249L32.7209 43.998L16.299 27.6259L1.81 42.0649L0 40.2419L16.3 23.9969L32.7209 40.369L49.149 23.9969L65.578 40.369L82.009 24.0009L96.501 38.4409L110.989 23.9969L127.41 40.369L143.84 23.9969L160.268 40.369Z" fill="#1DE9B6"/>
</svg>
