<svg width="140" height="42" viewBox="0 0 140 42" fill="none" xmlns="http://www.w3.org/2000/svg">
<path fill-rule="evenodd" clip-rule="evenodd" d="M-6.10352e-05 37.223L16.2599 21L-6.10352e-05 4.775L4.78986 0L25.8339 21L4.78986 42L-6.10352e-05 37.223ZM44.9779 21L28.7189 37.223L33.506 42L54.5499 21L33.506 0L28.7189 4.775L44.9779 21ZM73.3499 21L57.09 37.223L61.8749 42L82.919 21L61.8749 0L57.09 4.775L73.3499 21ZM130.43 21L114.171 37.223L118.956 42L139.999 21L118.956 0L114.171 4.775L130.43 21ZM85.8039 37.223L102.063 21L85.8039 4.775L90.591 0L111.635 21L90.591 42L85.8039 37.223Z" fill="#1DE9B6"/>
</svg>
