<svg width="180" height="237" viewBox="0 0 180 237" fill="none" xmlns="http://www.w3.org/2000/svg">
<path fill-rule="evenodd" clip-rule="evenodd" d="M177.525 122.1C175.375 124.249 171.891 124.249 169.741 122.1C167.592 119.951 167.592 116.466 169.741 114.317C171.891 112.167 175.375 112.167 177.525 114.317C179.674 116.466 179.674 119.951 177.525 122.1ZM57.3166 9.67507C59.4659 11.8244 62.9506 11.8244 65.0999 9.67508C67.2492 7.5258 67.2492 4.04112 65.0999 1.89183C62.9506 -0.257461 59.4659 -0.257466 57.3166 1.89182C55.1673 4.0411 55.1673 7.52578 57.3166 9.67507ZM34.8317 32.1596C36.981 34.3089 40.4657 34.3089 42.615 32.1596C44.7642 30.0103 44.7642 26.5257 42.615 24.3764C40.4657 22.2271 36.981 22.2271 34.8317 24.3764C32.6824 26.5257 32.6824 30.0103 34.8317 32.1596ZM20.1301 54.6451C17.9808 56.7944 14.4961 56.7944 12.3468 54.6451C10.1975 52.4958 10.1975 49.0111 12.3468 46.8618C14.4961 44.7126 17.9808 44.7126 20.1301 46.8619C22.2794 49.0111 22.2794 52.4958 20.1301 54.6451ZM-10.1381 77.1306C-7.98882 79.2799 -4.50414 79.2799 -2.35485 77.1306C-0.205568 74.9813 -0.205575 71.4966 -2.35486 69.3473C-4.50415 67.198 -7.98883 67.198 -10.1381 69.3473C-12.2874 71.4966 -12.2874 74.9813 -10.1381 77.1306ZM-24.8398 99.6151C-26.9891 101.764 -30.4738 101.764 -32.623 99.6151C-34.7723 97.4658 -34.7723 93.9811 -32.6231 91.8319C-30.4738 89.6826 -26.9891 89.6826 -24.8398 91.8319C-22.6905 93.9812 -22.6905 97.4658 -24.8398 99.6151ZM-55.108 122.1C-52.9587 124.249 -49.474 124.249 -47.3247 122.1C-45.1754 119.95 -45.1754 116.466 -47.3247 114.316C-49.474 112.167 -52.9587 112.167 -55.108 114.316C-57.2572 116.466 -57.2573 119.95 -55.108 122.1ZM87.5849 32.1604C85.4356 34.3097 81.9509 34.3097 79.8016 32.1604C77.6523 30.0111 77.6523 26.5264 79.8016 24.3771C81.9509 22.2279 85.4356 22.2279 87.5849 24.3772C89.7342 26.5264 89.7342 30.0111 87.5849 32.1604ZM57.3167 54.6459C59.466 56.7952 62.9507 56.7952 65.1 54.6459C67.2492 52.4966 67.2492 49.0119 65.1 46.8626C62.9507 44.7133 59.466 44.7133 57.3167 46.8626C55.1674 49.0119 55.1674 52.4966 57.3167 54.6459ZM42.6151 77.1304C40.4658 79.2797 36.9811 79.2797 34.8318 77.1304C32.6825 74.9811 32.6825 71.4965 34.8318 69.3472C36.9811 67.1979 40.4658 67.1979 42.6151 69.3472C44.7644 71.4965 44.7644 74.9812 42.6151 77.1304ZM12.3469 99.6159C14.4962 101.765 17.9809 101.765 20.1302 99.6159C22.2795 97.4666 22.2795 93.9819 20.1302 91.8327C17.9809 89.6834 14.4962 89.6834 12.3469 91.8326C10.1976 93.9819 10.1976 97.4666 12.3469 99.6159ZM-2.35479 122.1C-4.50408 124.25 -7.98875 124.25 -10.138 122.1C-12.2873 119.951 -12.2873 116.466 -10.1381 114.317C-7.98877 112.168 -4.50409 112.168 -2.3548 114.317C-0.205512 116.466 -0.205512 119.951 -2.35479 122.1ZM-32.623 144.585C-30.4737 146.734 -26.989 146.734 -24.8397 144.585C-22.6905 142.436 -22.6905 138.951 -24.8397 136.802C-26.989 134.652 -30.4737 134.652 -32.623 136.802C-34.7723 138.951 -34.7723 142.436 -32.623 144.585ZM110.07 54.6456C107.921 56.7949 104.436 56.7949 102.287 54.6456C100.137 52.4963 100.137 49.0116 102.287 46.8623C104.436 44.713 107.921 44.713 110.07 46.8623C112.219 49.0116 112.219 52.4963 110.07 54.6456ZM79.8017 77.1303C81.951 79.2796 85.4356 79.2796 87.5849 77.1303C89.7342 74.981 89.7342 71.4963 87.5849 69.347C85.4356 67.1977 81.9509 67.1977 79.8017 69.347C77.6524 71.4963 77.6524 74.981 79.8017 77.1303ZM65.1 99.6158C62.9507 101.765 59.4661 101.765 57.3168 99.6158C55.1675 97.4665 55.1675 93.9818 57.3168 91.8325C59.466 89.6832 62.9507 89.6832 65.1 91.8325C67.2493 93.9818 67.2493 97.4665 65.1 99.6158ZM34.8319 122.1C36.9812 124.25 40.4658 124.25 42.6151 122.1C44.7644 119.951 44.7644 116.466 42.6151 114.317C40.4658 112.168 36.9811 112.168 34.8319 114.317C32.6826 116.466 32.6826 119.951 34.8319 122.1ZM20.1303 144.585C17.981 146.734 14.4963 146.734 12.347 144.585C10.1977 142.436 10.1977 138.951 12.347 136.802C14.4963 134.652 17.981 134.652 20.1303 136.802C22.2795 138.951 22.2795 142.436 20.1303 144.585ZM-10.138 167.07C-7.98875 169.22 -4.50406 169.22 -2.35478 167.07C-0.205496 164.921 -0.205502 161.436 -2.35479 159.287C-4.50408 157.138 -7.98876 157.138 -10.138 159.287C-12.2873 161.436 -12.2873 164.921 -10.138 167.07ZM132.555 77.1302C130.406 79.2795 126.921 79.2795 124.772 77.1302C122.622 74.9809 122.622 71.4962 124.772 69.3469C126.921 67.1977 130.405 67.1977 132.555 69.347C134.704 71.4962 134.704 74.9809 132.555 77.1302ZM102.287 99.6156C104.436 101.765 107.921 101.765 110.07 99.6156C112.219 97.4663 112.219 93.9817 110.07 91.8324C107.921 89.6831 104.436 89.6831 102.287 91.8324C100.137 93.9816 100.137 97.4663 102.287 99.6156ZM87.585 122.1C85.4357 124.249 81.951 124.249 79.8017 122.1C77.6524 119.951 77.6524 116.466 79.8017 114.317C81.951 112.168 85.4357 112.168 87.585 114.317C89.7343 116.466 89.7343 119.951 87.585 122.1ZM57.3169 144.585C59.4662 146.734 62.9508 146.734 65.1001 144.585C67.2494 142.435 67.2494 138.951 65.1001 136.801C62.9508 134.652 59.4661 134.652 57.3169 136.801C55.1676 138.951 55.1676 142.435 57.3169 144.585ZM42.6152 167.07C40.4659 169.219 36.9812 169.219 34.832 167.07C32.6827 164.921 32.6827 161.436 34.8319 159.287C36.9812 157.138 40.4659 157.138 42.6152 159.287C44.7645 161.436 44.7645 164.921 42.6152 167.07ZM12.347 189.555C14.4963 191.704 17.981 191.704 20.1303 189.555C22.2796 187.405 22.2796 183.921 20.1303 181.771C17.981 179.622 14.4963 179.622 12.347 181.771C10.1977 183.921 10.1977 187.405 12.347 189.555ZM155.04 99.6157C152.89 101.765 149.406 101.765 147.256 99.6157C145.107 97.4664 145.107 93.9818 147.256 91.8325C149.406 89.6832 152.89 89.6832 155.04 91.8325C157.189 93.9818 157.189 97.4665 155.04 99.6157ZM124.772 122.1C126.921 124.249 130.406 124.249 132.555 122.1C134.704 119.951 134.704 116.466 132.555 114.317C130.406 112.167 126.921 112.167 124.772 114.317C122.622 116.466 122.622 119.951 124.772 122.1ZM110.07 144.585C107.921 146.734 104.436 146.734 102.287 144.585C100.137 142.435 100.137 138.951 102.287 136.801C104.436 134.652 107.921 134.652 110.07 136.801C112.219 138.951 112.219 142.435 110.07 144.585ZM79.8017 167.07C81.951 169.219 85.4357 169.219 87.585 167.07C89.7343 164.921 89.7343 161.436 87.585 159.287C85.4357 157.138 81.951 157.138 79.8017 159.287C77.6524 161.436 77.6525 164.921 79.8017 167.07ZM65.1001 189.555C62.9509 191.704 59.4662 191.704 57.3169 189.555C55.1676 187.405 55.1676 183.921 57.3169 181.771C59.4662 179.622 62.9508 179.622 65.1001 181.771C67.2494 183.921 67.2494 187.405 65.1001 189.555ZM34.832 212.04C36.9813 214.189 40.466 214.189 42.6153 212.04C44.7645 209.891 44.7645 206.406 42.6153 204.257C40.466 202.108 36.9813 202.108 34.832 204.257C32.6827 206.406 32.6827 209.891 34.832 212.04ZM147.257 144.585C149.406 146.735 152.891 146.735 155.04 144.585C157.189 142.436 157.189 138.951 155.04 136.802C152.891 134.653 149.406 134.653 147.257 136.802C145.107 138.951 145.107 142.436 147.257 144.585ZM132.555 167.07C130.406 169.219 126.921 169.219 124.772 167.07C122.622 164.921 122.622 161.436 124.772 159.287C126.921 157.137 130.406 157.137 132.555 159.287C134.704 161.436 134.704 164.921 132.555 167.07ZM102.287 189.554C104.436 191.704 107.921 191.704 110.07 189.554C112.219 187.405 112.219 183.921 110.07 181.771C107.921 179.622 104.436 179.622 102.287 181.771C100.137 183.92 100.137 187.405 102.287 189.554ZM87.5851 212.04C85.4358 214.189 81.9511 214.189 79.8018 212.04C77.6525 209.891 77.6525 206.406 79.8018 204.257C81.9511 202.107 85.4358 202.107 87.585 204.257C89.7343 206.406 89.7343 209.891 87.5851 212.04ZM57.3169 234.524C59.4662 236.674 62.9509 236.674 65.1001 234.524C67.2494 232.375 67.2494 228.891 65.1001 226.741C62.9508 224.592 59.4662 224.592 57.3169 226.741C55.1676 228.891 55.1676 232.375 57.3169 234.524Z" fill="#1DE9B6"/>
</svg>
