<svg width="265" height="265" viewBox="0 0 265 265" fill="none" xmlns="http://www.w3.org/2000/svg">
<path fill-rule="evenodd" clip-rule="evenodd" d="M128.001 11.0484C130.403 13.4506 134.298 13.4506 136.7 11.0484C139.102 8.64629 139.102 4.75165 136.7 2.3495C134.298 -0.0526455 130.403 -0.0526455 128.001 2.3495C125.599 4.75165 125.599 8.64629 128.001 11.0484ZM102.871 36.1787C105.273 38.5808 109.167 38.5808 111.57 36.1787C113.972 33.7766 113.972 29.8819 111.57 27.4798C109.167 25.0776 105.273 25.0776 102.871 27.4798C100.469 29.8819 100.468 33.7766 102.871 36.1787ZM86.4393 61.309C84.0372 63.7111 80.1425 63.7111 77.7404 61.309C75.3382 58.9068 75.3382 55.0122 77.7404 52.61C80.1425 50.2079 84.0372 50.2079 86.4393 52.61C88.8415 55.0122 88.8415 58.9068 86.4393 61.309ZM52.6101 86.4392C55.0122 88.8414 58.9069 88.8414 61.309 86.4392C63.7112 84.0371 63.7111 80.1424 61.309 77.7403C58.9069 75.3381 55.0122 75.3381 52.6101 77.7403C50.2079 80.1424 50.2079 84.0371 52.6101 86.4392ZM36.1788 111.569C33.7766 113.972 29.882 113.972 27.4798 111.569C25.0777 109.167 25.0777 105.273 27.4798 102.871C29.882 100.468 33.7766 100.468 36.1788 102.871C38.5809 105.273 38.5809 109.167 36.1788 111.569ZM2.34956 136.7C4.7517 139.102 8.64634 139.102 11.0485 136.7C13.4506 134.298 13.4506 130.403 11.0485 128.001C8.64635 125.599 4.7517 125.599 2.34956 128.001C-0.0525954 130.403 -0.052588 134.298 2.34956 136.7ZM161.83 36.1787C159.428 38.5808 155.533 38.5808 153.131 36.1787C150.729 33.7766 150.729 29.8819 153.131 27.4798C155.533 25.0776 159.428 25.0776 161.83 27.4798C164.232 29.8819 164.232 33.7766 161.83 36.1787ZM128.001 61.3089C130.403 63.7111 134.298 63.7111 136.7 61.3089C139.102 58.9068 139.102 55.0122 136.7 52.61C134.298 50.2079 130.403 50.2079 128.001 52.61C125.599 55.0122 125.599 58.9068 128.001 61.3089ZM111.57 86.4392C109.167 88.8413 105.273 88.8413 102.871 86.4392C100.468 84.0371 100.468 80.1424 102.871 77.7403C105.273 75.3381 109.167 75.3381 111.57 77.7403C113.972 80.1424 113.972 84.0371 111.57 86.4392ZM77.7404 111.569C80.1425 113.972 84.0372 113.972 86.4393 111.569C88.8415 109.167 88.8415 105.273 86.4393 102.871C84.0372 100.468 80.1425 100.468 77.7404 102.871C75.3382 105.273 75.3382 109.167 77.7404 111.569ZM61.309 136.7C58.9068 139.102 55.0122 139.102 52.6101 136.7C50.2079 134.298 50.2079 130.403 52.6101 128.001C55.0122 125.599 58.9069 125.599 61.309 128.001C63.7111 130.403 63.7111 134.298 61.309 136.7ZM27.4798 161.83C29.8819 164.232 33.7766 164.232 36.1787 161.83C38.5809 159.428 38.5809 155.533 36.1787 153.131C33.7766 150.729 29.8819 150.729 27.4798 153.131C25.0776 155.533 25.0776 159.428 27.4798 161.83ZM186.96 61.309C184.558 63.7111 180.664 63.7111 178.261 61.309C175.859 58.9068 175.859 55.0122 178.261 52.61C180.664 50.2079 184.558 50.2079 186.96 52.61C189.363 55.0122 189.363 58.9068 186.96 61.309ZM153.131 86.4392C155.533 88.8413 159.428 88.8413 161.83 86.4392C164.232 84.0371 164.232 80.1424 161.83 77.7403C159.428 75.3381 155.533 75.3381 153.131 77.7403C150.729 80.1424 150.729 84.037 153.131 86.4392ZM136.7 111.569C134.298 113.972 130.403 113.972 128.001 111.569C125.599 109.167 125.599 105.273 128.001 102.871C130.403 100.468 134.298 100.468 136.7 102.871C139.102 105.273 139.102 109.167 136.7 111.569ZM102.871 136.7C105.273 139.102 109.167 139.102 111.57 136.7C113.972 134.298 113.972 130.403 111.57 128.001C109.167 125.599 105.273 125.599 102.871 128.001C100.468 130.403 100.468 134.298 102.871 136.7ZM86.4394 161.83C84.0372 164.232 80.1426 164.232 77.7404 161.83C75.3383 159.428 75.3383 155.533 77.7404 153.131C80.1426 150.729 84.0372 150.729 86.4394 153.131C88.8415 155.533 88.8415 159.428 86.4394 161.83ZM52.61 186.96C55.0122 189.363 58.9068 189.363 61.309 186.96C63.7111 184.558 63.7111 180.664 61.309 178.261C58.9068 175.859 55.0122 175.859 52.61 178.261C50.2079 180.664 50.2079 184.558 52.61 186.96ZM212.091 86.4392C209.688 88.8414 205.794 88.8414 203.392 86.4392C200.99 84.0371 200.99 80.1424 203.392 77.7403C205.794 75.3381 209.688 75.3381 212.091 77.7403C214.493 80.1424 214.493 84.0371 212.091 86.4392ZM178.261 111.569C180.664 113.972 184.558 113.972 186.96 111.569C189.362 109.167 189.362 105.273 186.96 102.871C184.558 100.468 180.664 100.468 178.261 102.871C175.859 105.273 175.859 109.167 178.261 111.569ZM161.83 136.7C159.428 139.102 155.533 139.102 153.131 136.7C150.729 134.298 150.729 130.403 153.131 128.001C155.533 125.599 159.428 125.599 161.83 128.001C164.232 130.403 164.232 134.298 161.83 136.7ZM128.001 161.83C130.403 164.232 134.298 164.232 136.7 161.83C139.102 159.428 139.102 155.533 136.7 153.131C134.298 150.729 130.403 150.729 128.001 153.131C125.599 155.533 125.599 159.428 128.001 161.83ZM111.57 186.96C109.167 189.362 105.273 189.362 102.871 186.96C100.469 184.558 100.469 180.664 102.871 178.261C105.273 175.859 109.167 175.859 111.57 178.261C113.972 180.664 113.972 184.558 111.57 186.96ZM77.7404 212.091C80.1426 214.493 84.0372 214.493 86.4394 212.091C88.8415 209.688 88.8415 205.794 86.4394 203.392C84.0372 200.99 80.1426 200.99 77.7404 203.392C75.3383 205.794 75.3383 209.688 77.7404 212.091ZM237.221 111.569C234.819 113.972 230.924 113.972 228.522 111.569C226.12 109.167 226.12 105.273 228.522 102.871C230.924 100.468 234.819 100.468 237.221 102.871C239.623 105.273 239.623 109.167 237.221 111.569ZM203.392 136.7C205.794 139.102 209.688 139.102 212.091 136.7C214.493 134.298 214.493 130.403 212.091 128.001C209.688 125.599 205.794 125.599 203.392 128.001C200.989 130.403 200.99 134.298 203.392 136.7ZM186.96 161.83C184.558 164.232 180.664 164.232 178.261 161.83C175.859 159.428 175.859 155.533 178.261 153.131C180.664 150.729 184.558 150.729 186.96 153.131C189.362 155.533 189.362 159.428 186.96 161.83ZM153.131 186.96C155.533 189.363 159.428 189.362 161.83 186.96C164.232 184.558 164.232 180.664 161.83 178.261C159.428 175.859 155.533 175.859 153.131 178.261C150.729 180.664 150.729 184.558 153.131 186.96ZM136.7 212.091C134.298 214.493 130.403 214.493 128.001 212.091C125.599 209.688 125.599 205.794 128.001 203.392C130.403 200.99 134.298 200.99 136.7 203.392C139.102 205.794 139.102 209.688 136.7 212.091ZM102.871 237.221C105.273 239.623 109.167 239.623 111.57 237.221C113.972 234.819 113.972 230.924 111.57 228.522C109.167 226.12 105.273 226.12 102.871 228.522C100.469 230.924 100.469 234.819 102.871 237.221ZM262.351 136.7C259.949 139.102 256.054 139.102 253.652 136.7C251.25 134.298 251.25 130.403 253.652 128.001C256.054 125.599 259.949 125.599 262.351 128.001C264.753 130.403 264.753 134.298 262.351 136.7ZM228.522 161.83C230.924 164.232 234.819 164.232 237.221 161.83C239.623 159.428 239.623 155.533 237.221 153.131C234.819 150.729 230.924 150.729 228.522 153.131C226.12 155.533 226.12 159.428 228.522 161.83ZM212.091 186.96C209.688 189.362 205.794 189.362 203.392 186.96C200.989 184.558 200.989 180.664 203.392 178.261C205.794 175.859 209.688 175.859 212.091 178.261C214.493 180.664 214.493 184.558 212.091 186.96ZM178.261 212.091C180.664 214.493 184.558 214.493 186.96 212.091C189.362 209.688 189.362 205.794 186.96 203.392C184.558 200.99 180.664 200.99 178.261 203.392C175.859 205.794 175.859 209.688 178.261 212.091ZM161.83 237.221C159.428 239.623 155.533 239.623 153.131 237.221C150.729 234.819 150.729 230.924 153.131 228.522C155.533 226.12 159.428 226.12 161.83 228.522C164.232 230.924 164.232 234.819 161.83 237.221ZM128.001 262.351C130.403 264.753 134.298 264.753 136.7 262.351C139.102 259.949 139.102 256.054 136.7 253.652C134.298 251.25 130.403 251.25 128.001 253.652C125.599 256.054 125.599 259.949 128.001 262.351Z" fill="#1DE9B6"/>
</svg>
