<svg width="240" height="240" viewBox="0 0 240 240" fill="none" xmlns="http://www.w3.org/2000/svg">
<path fill-rule="evenodd" clip-rule="evenodd" d="M111.764 0.255438C113.633 0.126454 115.503 0.0398331 117.374 0L0 117.375C0.0398331 115.503 0.126454 113.632 0.254173 111.765L111.764 0.255438ZM132.301 0.605103C133.893 0.766332 135.484 0.957278 137.074 1.183L1.18418 137.074C0.957199 135.488 0.766253 133.893 0.60376 132.3L132.301 0.605103ZM154.218 4.92666C152.822 4.51252 151.421 4.13316 150.015 3.77277L3.77148 150.015C4.13314 151.422 4.51187 152.822 4.92538 154.218L154.218 4.92666ZM195.286 26.5105C194.293 25.7087 193.288 24.9266 192.276 24.1628L24.1628 192.276C24.9266 193.29 25.7081 194.294 26.5092 195.286L195.286 26.5105ZM179.707 15.8479C180.834 16.496 181.955 17.1605 183.063 17.8459L17.8453 183.067C17.1586 181.955 16.4941 180.833 15.8473 179.707L179.707 15.8479ZM169.434 10.5956C168.192 10.0335 166.946 9.4929 165.694 8.97949L8.97827 165.694C9.49294 166.946 10.0335 168.192 10.5944 169.434L169.434 10.5956ZM204.875 35.1271C204.446 34.6974 204.013 34.2799 203.578 33.8601L203.52 33.8037L33.8037 203.52L33.9564 203.678C34.3433 204.08 34.7295 204.481 35.1252 204.876C35.4844 205.236 35.8481 205.588 36.212 205.939L36.2145 205.941L36.4807 206.199L206.196 36.482C205.761 36.0274 205.324 35.5734 204.875 35.1271ZM2.90149 93.5888L93.5888 2.90149C91.1697 3.44461 88.7658 4.0636 86.379 4.75721L4.75594 86.379C4.06234 88.7671 3.44461 91.171 2.90149 93.5888ZM240 122.627C239.96 124.499 239.876 126.368 239.748 128.237L128.234 239.747C126.368 239.877 124.496 239.96 122.627 240L240 122.627ZM239.397 107.702C239.234 106.107 239.042 104.515 238.816 102.928L102.927 238.817C104.515 239.045 106.107 239.233 107.702 239.397L239.397 107.702ZM35.1258 35.1271C42.4563 27.7933 50.5001 21.611 59.0345 16.5712L16.5712 59.0345C21.6097 50.5014 27.7933 42.4576 35.1258 35.1271ZM235.245 153.624C235.939 151.236 236.557 148.832 237.101 146.414L146.414 237.101C148.828 236.559 151.235 235.94 153.62 235.246L235.245 153.624ZM204.875 204.875C197.542 212.206 189.501 218.391 180.965 223.431L223.429 180.965C218.391 189.501 212.207 197.544 204.875 204.875ZM224.152 60.2927C223.505 59.166 222.843 58.0469 222.154 56.9366L56.9354 222.157C58.0457 222.842 59.1661 223.507 60.2928 224.152L224.152 60.2927ZM213.492 44.7167C214.294 45.7088 215.073 46.7115 215.84 47.7232L47.7232 215.84C46.7122 215.073 45.7081 214.293 44.7155 213.491L213.492 44.7167ZM236.229 89.9848C235.869 88.5812 235.487 87.1775 235.076 85.784L85.7847 235.076C87.1776 235.487 88.5799 235.869 89.9855 236.23L236.229 89.9848ZM229.407 70.5684C229.966 71.8083 230.507 73.0539 231.023 74.3096L74.3082 231.024C73.0532 230.506 71.8082 229.966 70.5684 229.407L229.407 70.5684Z" fill="#1DE9B6"/>
</svg>
