<svg width="161" height="70" viewBox="0 0 161 70" fill="none" xmlns="http://www.w3.org/2000/svg">
<path d="M25.7078 23.925C13.6167 36.9373 10.1153 46.2041 10.1153 46.2041C12.7413 49.2513 17.2172 48.9947 17.2172 48.9947C21.9348 49.1419 24.8242 46.2168 24.8242 46.2168C30.6868 40.3119 29.9649 23.542 29.9649 23.542C28.7798 20.9625 25.7078 23.925 25.7078 23.925Z" fill="#616161"/>
<path d="M7.05513 34.1007C7.05513 34.1007 5.20552 37.7995 8.25861 44.0234L16.3727 26.1892C16.28 26.2226 9.05453 28.7436 7.05513 34.1007Z" fill="#616161"/>
<path d="M118.758 44.9621C118.259 45.0051 117.767 45.0051 117.28 44.8739C116.468 44.6634 115.978 44.1549 115.83 43.3249C115.751 42.8622 115.776 42.4078 115.86 41.9533C116.091 40.6654 116.333 39.3777 116.576 38.0898C117.007 35.7502 117.445 33.4061 117.88 31.0663C117.896 30.9611 117.925 30.8557 117.948 30.7466C120.102 30.7466 122.236 30.7466 124.366 30.7466C124.627 30.2125 125.677 27.5945 125.688 27.4391C125.286 27.4391 124.882 27.4391 124.48 27.4391C124.071 27.4391 123.667 27.4391 123.265 27.4391C122.859 27.4391 122.455 27.4391 122.047 27.4391C121.648 27.4391 121.24 27.4391 120.832 27.4391C120.434 27.4391 120.027 27.4391 119.623 27.4391C119.221 27.4391 118.821 27.4473 118.39 27.4345C118.814 25.2716 119.231 23.1341 119.648 21C119.637 21 119.622 21 119.612 21C119.579 21.0252 119.548 21.0545 119.513 21.0673C119.047 21.3027 118.583 21.5302 118.116 21.7617C117.116 22.254 116.119 22.7506 115.117 23.239C115.004 23.2977 114.953 23.3693 114.944 23.4871C114.93 23.6134 114.909 23.7355 114.889 23.8616C114.725 24.8926 114.564 25.9233 114.399 26.9546C114.246 27.9142 114.091 28.8737 113.942 29.8289C113.78 30.8554 113.617 31.8828 113.459 32.905C113.304 33.8603 113.158 34.8153 113.008 35.7666C112.84 36.8101 112.675 37.8498 112.514 38.8891C112.358 39.8443 112.211 40.7996 112.059 41.7512C112.002 42.0912 111.929 42.4284 111.909 42.7698C111.869 43.4218 111.928 44.062 112.082 44.6922C112.442 46.161 113.327 47.1714 114.751 47.6974C115.448 47.9588 116.174 48.0682 116.912 48.093C117.591 48.1185 118.264 48.0758 118.932 47.9758C119.282 47.9294 119.635 47.8585 119.993 47.7946C120.244 46.7257 120.492 45.6659 120.748 44.5845C120.668 44.6015 120.624 44.6097 120.58 44.6224C119.983 44.7821 119.374 44.9121 118.758 44.9621Z" fill="#616161"/>
<path d="M154.19 28.2892C154.042 28.2765 153.952 28.3313 153.87 28.4574C153.278 29.362 152.677 30.2628 152.081 31.1593C152.051 31.2017 152.018 31.239 151.972 31.3023C151.949 31.2262 151.929 31.1759 151.913 31.1253C151.76 30.6206 151.609 30.1198 151.453 29.6187C151.335 29.2318 151.214 28.8485 151.095 28.4574C151.077 28.3943 151.057 28.331 150.973 28.331C150.804 28.3353 150.637 28.3353 150.455 28.3353C150.161 29.602 149.871 30.8684 149.578 32.1479C149.78 32.1479 149.957 32.1479 150.152 32.1479C150.358 31.3353 150.564 30.5234 150.769 29.7114C150.784 29.7068 150.799 29.7069 150.813 29.7069C151.057 30.5446 151.298 31.3817 151.548 32.2279C151.68 32.2279 151.806 32.2236 151.934 32.2324C152.05 32.2369 152.125 32.1988 152.195 32.0933C152.685 31.3568 153.186 30.6248 153.687 29.8883C153.716 29.8419 153.754 29.7959 153.786 29.7492C153.8 29.7538 153.815 29.7538 153.824 29.762C153.759 30.553 153.695 31.3486 153.633 32.1524C153.845 32.1524 154.031 32.1524 154.227 32.1524C154.229 32.1145 154.235 32.0936 154.241 32.0727C154.317 30.9908 154.389 29.9137 154.462 28.8364C154.468 28.7861 154.488 28.7355 154.5 28.6809C154.5 28.5503 154.5 28.4158 154.5 28.281C154.4 28.2892 154.295 28.3019 154.19 28.2892Z" fill="#616161"/>
<path d="M104.883 26.7111C103.927 26.6353 102.975 26.6526 102.029 26.7701C100.72 26.9383 99.4664 27.2958 98.2629 27.8306C96.7284 28.5165 95.359 29.4508 94.0835 30.5364C93.0125 31.4538 92.0781 32.4893 91.3478 33.697C90.01 35.9108 89.3342 38.2922 89.5117 40.8929C89.579 41.8861 89.7884 42.8493 90.1697 43.7709C91.0617 45.9093 92.5705 47.4027 94.7872 48.1437C95.0894 48.2449 95.4017 48.3373 95.714 48.3754C96.4916 48.4639 97.2671 48.4515 98.0435 48.3543C99.2303 48.2028 100.35 47.8413 101.386 47.2393C102.953 46.3264 104.119 45.0343 104.906 43.406C104.934 43.3467 104.962 43.2967 104.987 43.2413C105 43.2455 105.013 43.2495 105.026 43.254C104.689 44.7901 104.352 46.3264 104.012 47.871C105.317 47.871 106.604 47.871 107.903 47.871C109.069 41.4322 110.232 35.0013 111.396 28.5546C111.169 28.4495 110.961 28.3523 110.748 28.2644C108.87 27.4516 106.932 26.8795 104.883 26.7111ZM106.774 31.7695C106.579 33.7937 106.078 35.7548 105.52 37.7075C104.958 39.6683 103.927 41.3434 102.521 42.795C101.705 43.6409 100.766 44.3223 99.6526 44.7392C99.0201 44.9786 98.368 45.1052 97.6894 45.1007C97.3155 45.0961 96.9407 45.1134 96.5792 44.9995C95.017 44.5241 94.0088 43.4931 93.5315 41.9488C93.3387 41.3092 93.2853 40.6437 93.3294 39.9795C93.4176 38.6455 93.8263 37.4042 94.3785 36.1963C94.5868 35.7415 94.8209 35.2871 95.0696 34.8453C95.3743 34.3148 95.7745 33.8519 96.205 33.4229C97.7982 31.8322 99.6981 30.8012 101.906 30.355C103.492 30.0438 105.062 30.128 106.596 30.6704C106.67 30.7001 106.741 30.7255 106.843 30.7628C106.821 31.1048 106.806 31.4369 106.774 31.7695Z" fill="#616161"/>
<path d="M142.33 28.8322C140.724 27.4646 138.84 26.7871 136.745 26.6608C135.251 26.5726 133.78 26.7659 132.364 27.2625C128.73 28.5334 126.052 30.8987 124.357 34.3493C123.578 35.9272 123.192 37.606 123.177 39.3023C123.181 40.1101 123.244 40.8469 123.419 41.5707C124.086 44.3478 125.681 46.3931 128.265 47.6305C129.875 48.4006 131.587 48.64 133.362 48.5057C134.517 48.4215 135.638 48.1607 136.72 47.7486C138.643 47.0245 140.308 45.905 141.735 44.4283C143.157 42.9632 144.214 41.2719 144.842 39.3283C145.449 37.4638 145.61 35.5618 145.181 33.6343C144.756 31.7232 143.818 30.1113 142.33 28.8322ZM139.875 40.5815C138.85 42.2478 137.463 43.5231 135.683 44.3478C134.677 44.8107 133.616 45.0515 132.509 45.0213C130.217 44.9582 128.351 43.5946 127.657 41.3262C127.394 40.4679 127.332 39.5886 127.424 38.6961C127.657 36.5196 128.602 34.6896 130.109 33.1281C131.079 32.118 132.217 31.3521 133.539 30.8677C134.479 30.5226 135.451 30.3544 136.452 30.4595C138.582 30.6868 140.053 31.7978 140.84 33.7925C141.126 34.5206 141.228 35.2823 141.234 36.086C141.207 37.6947 140.731 39.2011 139.875 40.5815Z" fill="#616161"/>
<path d="M50.5844 31.883C50.5465 31.4537 50.5064 31.0286 50.382 30.6163C49.9148 29.059 48.9491 27.948 47.4364 27.3254C46.7249 27.0306 45.9822 26.8876 45.2185 26.841C44.2566 26.7822 43.3036 26.8749 42.3587 27.0727C40.7488 27.409 39.2443 28.015 37.8282 28.84C36.2542 29.7531 34.8631 30.8978 33.7249 32.3244C32.8916 33.3679 32.2472 34.5125 31.8645 35.7962C31.7003 36.3431 31.6099 36.8987 31.5321 37.4626C31.4524 38.0473 31.3552 38.6284 31.3196 39.2219C31.2523 40.3456 31.3258 41.4527 31.6291 42.5388C32.2014 44.6054 33.4303 46.1454 35.3622 47.0959C36.4334 47.6218 37.5761 47.8787 38.7562 47.9796C39.8104 48.0687 40.8562 48.0136 41.898 47.8703C43.1077 47.6979 44.2883 47.4079 45.45 47.0249C45.7866 46.9108 46.119 46.7935 46.4601 46.6756C46.6119 45.375 46.7631 44.0913 46.9188 42.7785C46.8496 42.8164 46.8095 42.8373 46.7696 42.8627C45.2103 43.9237 43.4975 44.585 41.6162 44.7775C40.783 44.8617 39.954 44.8281 39.1372 44.6226C38.2259 44.3861 37.4286 43.9618 36.787 43.2671C36.1494 42.577 35.7791 41.7438 35.5728 40.8346C35.5685 40.814 35.581 40.7922 35.5855 40.7634C35.6632 40.7586 35.7327 40.7506 35.8085 40.7506C36.5894 40.7128 37.374 40.6834 38.157 40.6368C39.5162 40.5655 40.863 40.4265 42.2033 40.1995C43.2513 40.0184 44.2843 39.7827 45.2903 39.4376C46.2792 39.097 47.2133 38.6635 48.059 38.0408C49.3343 37.0983 50.1571 35.8607 50.4747 34.2952C50.6347 33.4948 50.6554 32.6871 50.5844 31.883ZM46.4952 34.0165C46.3038 34.7658 45.8745 35.3548 45.2894 35.8431C44.7298 36.3188 44.0879 36.6466 43.4059 36.9033C42.5452 37.237 41.6529 37.4346 40.7437 37.5601C39.6917 37.7073 38.6394 37.7619 37.5832 37.7285C37.0024 37.7073 36.4258 37.661 35.8492 37.6234C35.8074 37.6234 35.7652 37.6059 35.6977 37.5934C35.7231 37.4968 35.7418 37.4128 35.7652 37.3371C36.1903 35.9274 36.9139 34.6813 37.9074 33.6002C39.0394 32.3586 40.3819 31.4116 41.9687 30.8395C42.6716 30.5872 43.3954 30.4275 44.1464 30.4523C44.5189 30.4605 44.8787 30.5238 45.2221 30.6671C45.8533 30.9195 46.2614 31.3785 46.4426 32.0305C46.6235 32.6871 46.6659 33.3512 46.4952 34.0165Z" fill="#616161"/>
<path d="M68.6347 27.397C67.8371 27.0646 67.0013 26.888 66.1387 26.8416C65.1158 26.7828 64.1017 26.867 63.1003 27.094C61.301 27.4984 59.8047 28.3989 58.6476 29.8422C58.1976 30.4061 57.8189 31.0163 57.4944 31.6561C57.4735 31.6982 57.4481 31.7398 57.4252 31.7822C57.4144 31.774 57.4062 31.7698 57.3978 31.7649C57.6247 30.3552 57.852 28.9497 58.0837 27.5233C56.7033 27.5233 55.348 27.5233 53.9801 27.5233C52.8145 34.3114 51.6508 41.0905 50.4827 47.8836C51.8317 47.8836 53.1508 47.8836 54.4702 47.8836C54.4851 47.8285 54.5015 47.7819 54.5083 47.7364C54.7522 46.3089 54.9857 44.8743 55.2384 43.4515C55.4908 42.05 55.802 40.6614 56.2166 39.2986C56.6985 37.7083 57.313 36.1674 58.1923 34.745C59.1959 33.1204 60.5447 31.8622 62.2581 31.0081C63.2722 30.503 64.3454 30.2252 65.4903 30.3094C65.8988 30.3388 66.2857 30.4394 66.654 30.6212C67.0808 30.8357 67.3798 31.1723 67.5562 31.6143C67.6551 31.8709 67.7082 32.136 67.7413 32.4057C67.8213 33.0831 67.7625 33.7609 67.6531 34.4253C67.4216 35.8056 67.1732 37.186 66.9315 38.5629C66.6726 40.0433 66.4098 41.5215 66.1512 42.9979C65.8646 44.6264 65.5788 46.2506 65.2925 47.8791C65.288 47.9255 65.288 47.9713 65.284 48.0264C66.6396 48.0264 67.9818 48.0264 69.3329 48.0264C69.3456 47.9713 69.3583 47.9255 69.3665 47.8791C69.5389 46.949 69.7136 46.02 69.8882 45.089C70.1723 43.5572 70.4566 42.0288 70.7444 40.5023C71.0137 39.0462 71.2831 37.5938 71.557 36.138C71.7271 35.2461 71.8995 34.3498 71.921 33.4322C71.9439 32.5108 71.8766 31.6016 71.6135 30.7141C71.1429 29.1433 70.1534 28.0326 68.6347 27.397Z" fill="#616161"/>
<path d="M92.417 27.3424C92.3268 27.3424 92.2621 27.3424 92.1991 27.3424C90.9187 27.3424 89.6403 27.3424 88.3611 27.3381C88.2136 27.3381 88.1378 27.3842 88.0663 27.5105C86.5471 30.2418 85.0214 32.9686 83.496 35.6996C82.4689 37.5341 81.442 39.3735 80.4152 41.2131C80.3858 41.2682 80.3519 41.323 80.3186 41.3733C80.3081 41.3679 80.2954 41.3648 80.2846 41.3606C79.2618 36.7272 78.2372 32.0978 77.2123 27.4648C75.8718 27.4648 74.5484 27.4648 73.2076 27.4648C74.8975 34.4168 76.5851 41.3606 78.277 48.3251C78.3593 48.3251 78.4181 48.3251 78.4794 48.3251C78.8666 48.3251 79.2516 48.3166 79.6371 48.3251C79.7781 48.329 79.8516 48.2824 79.9237 48.1642C80.7394 46.7884 81.5653 45.4214 82.3914 44.0487C85.6913 38.557 88.9908 33.065 92.2921 27.5688C92.3288 27.5021 92.3664 27.4348 92.417 27.3424Z" fill="#616161"/>
<path d="M149.828 28.3313C148.843 28.3313 147.875 28.3313 146.892 28.3313C146.859 28.5334 146.821 28.7352 146.779 28.9502C146.989 28.9502 147.165 28.9502 147.35 28.9542C147.533 28.9587 147.716 28.9333 147.909 28.9754C147.711 30.0316 147.513 31.0793 147.315 32.1354C147.556 32.1354 147.775 32.1354 147.996 32.1354C148.2 31.0708 148.398 30.0189 148.603 28.9539C148.984 28.9457 149.344 28.9584 149.705 28.9457C149.75 28.7309 149.79 28.5331 149.828 28.3313Z" fill="#616161"/>
</svg>
