<svg width="768" height="409" viewBox="0 0 768 409" fill="none" xmlns="http://www.w3.org/2000/svg">
<path fill-rule="evenodd" clip-rule="evenodd" d="M639.764 0.255438C641.633 0.126454 643.503 0.0398331 645.374 0L528 117.375C528.04 115.503 528.126 113.632 528.254 111.765L639.764 0.255438ZM660.301 0.605103C661.893 0.766332 663.484 0.957278 665.074 1.183L529.184 137.074C528.957 135.488 528.766 133.893 528.604 132.3L660.301 0.605103ZM682.218 4.92666C680.822 4.51252 679.421 4.13316 678.015 3.77277L531.771 150.015C532.133 151.422 532.512 152.822 532.925 154.218L682.218 4.92666ZM723.286 26.5105C722.293 25.7087 721.288 24.9266 720.276 24.1628L552.163 192.276C552.927 193.29 553.708 194.294 554.509 195.286L723.286 26.5105ZM707.707 15.8479C708.834 16.496 709.955 17.1605 711.063 17.8459L545.845 183.067C545.159 181.955 544.494 180.833 543.847 179.707L707.707 15.8479ZM697.434 10.5956C696.192 10.0335 694.946 9.4929 693.694 8.97949L536.978 165.694C537.493 166.946 538.034 168.192 538.594 169.434L697.434 10.5956ZM732.875 35.1271C732.446 34.6974 732.013 34.2799 731.578 33.8601L731.52 33.8037L561.804 203.52L561.956 203.678C562.343 204.08 562.73 204.481 563.125 204.876C563.484 205.236 563.848 205.588 564.212 205.939L564.215 205.941L564.481 206.199L734.196 36.482C733.761 36.0274 733.324 35.5734 732.875 35.1271ZM530.901 93.5888L621.589 2.90149C619.17 3.44461 616.766 4.0636 614.379 4.75721L532.756 86.379C532.062 88.7671 531.445 91.171 530.901 93.5888ZM768 122.627C767.96 124.499 767.876 126.368 767.748 128.237L656.234 239.747C654.368 239.877 652.496 239.96 650.627 240L768 122.627ZM767.397 107.702C767.234 106.107 767.042 104.515 766.816 102.928L630.927 238.817C632.515 239.045 634.107 239.233 635.702 239.397L767.397 107.702ZM563.126 35.1271C570.456 27.7933 578.5 21.611 587.034 16.5712L544.571 59.0345C549.61 50.5014 555.793 42.4576 563.126 35.1271ZM763.245 153.624C763.939 151.236 764.557 148.832 765.101 146.414L674.414 237.101C676.828 236.559 679.235 235.94 681.62 235.246L763.245 153.624ZM732.875 204.875C725.542 212.206 717.501 218.391 708.965 223.431L751.429 180.965C746.391 189.501 740.207 197.544 732.875 204.875ZM752.152 60.2927C751.505 59.166 750.843 58.0469 750.154 56.9366L584.935 222.157C586.046 222.842 587.166 223.507 588.293 224.152L752.152 60.2927ZM741.492 44.7167C742.294 45.7088 743.073 46.7115 743.84 47.7232L575.723 215.84C574.712 215.073 573.708 214.293 572.715 213.491L741.492 44.7167ZM764.229 89.9848C763.869 88.5812 763.487 87.1775 763.076 85.784L613.785 235.076C615.178 235.487 616.58 235.869 617.985 236.23L764.229 89.9848ZM757.407 70.5684C757.966 71.8083 758.507 73.0539 759.023 74.3096L602.308 231.024C601.053 230.506 599.808 229.966 598.568 229.407L757.407 70.5684Z" fill="#1DE9B6"/>
<path fill-rule="evenodd" clip-rule="evenodd" d="M130.001 153.048C132.403 155.451 136.298 155.451 138.7 153.048C141.102 150.646 141.102 146.752 138.7 144.35C136.298 141.947 132.403 141.947 130.001 144.35C127.599 146.752 127.599 150.646 130.001 153.048ZM104.871 178.179C107.273 180.581 111.167 180.581 113.57 178.179C115.972 175.777 115.972 171.882 113.57 169.48C111.167 167.078 107.273 167.078 104.871 169.48C102.469 171.882 102.468 175.777 104.871 178.179ZM88.4393 203.309C86.0372 205.711 82.1425 205.711 79.7404 203.309C77.3382 200.907 77.3382 197.012 79.7404 194.61C82.1425 192.208 86.0372 192.208 88.4393 194.61C90.8415 197.012 90.8415 200.907 88.4393 203.309ZM54.6101 228.439C57.0122 230.841 60.9069 230.841 63.309 228.439C65.7112 226.037 65.7111 222.142 63.309 219.74C60.9069 217.338 57.0122 217.338 54.6101 219.74C52.2079 222.142 52.2079 226.037 54.6101 228.439ZM38.1788 253.569C35.7766 255.972 31.882 255.972 29.4798 253.569C27.0777 251.167 27.0777 247.273 29.4798 244.871C31.882 242.468 35.7766 242.468 38.1788 244.871C40.5809 247.273 40.5809 251.167 38.1788 253.569ZM4.34956 278.7C6.7517 281.102 10.6463 281.102 13.0485 278.7C15.4506 276.298 15.4506 272.403 13.0485 270.001C10.6463 267.599 6.7517 267.599 4.34956 270.001C1.9474 272.403 1.94741 276.298 4.34956 278.7ZM163.83 178.179C161.428 180.581 157.533 180.581 155.131 178.179C152.729 175.777 152.729 171.882 155.131 169.48C157.533 167.078 161.428 167.078 163.83 169.48C166.232 171.882 166.232 175.777 163.83 178.179ZM130.001 203.309C132.403 205.711 136.298 205.711 138.7 203.309C141.102 200.907 141.102 197.012 138.7 194.61C136.298 192.208 132.403 192.208 130.001 194.61C127.599 197.012 127.599 200.907 130.001 203.309ZM113.57 228.439C111.167 230.841 107.273 230.841 104.871 228.439C102.468 226.037 102.468 222.142 104.871 219.74C107.273 217.338 111.167 217.338 113.57 219.74C115.972 222.142 115.972 226.037 113.57 228.439ZM79.7404 253.569C82.1425 255.972 86.0372 255.972 88.4393 253.569C90.8415 251.167 90.8415 247.273 88.4393 244.871C86.0372 242.468 82.1425 242.468 79.7404 244.871C77.3382 247.273 77.3382 251.167 79.7404 253.569ZM63.309 278.7C60.9068 281.102 57.0122 281.102 54.6101 278.7C52.2079 276.298 52.2079 272.403 54.6101 270.001C57.0122 267.599 60.9069 267.599 63.309 270.001C65.7111 272.403 65.7111 276.298 63.309 278.7ZM29.4798 303.83C31.8819 306.232 35.7766 306.232 38.1787 303.83C40.5809 301.428 40.5809 297.533 38.1787 295.131C35.7766 292.729 31.8819 292.729 29.4798 295.131C27.0776 297.533 27.0776 301.428 29.4798 303.83ZM188.96 203.309C186.558 205.711 182.664 205.711 180.261 203.309C177.859 200.907 177.859 197.012 180.261 194.61C182.664 192.208 186.558 192.208 188.96 194.61C191.363 197.012 191.363 200.907 188.96 203.309ZM155.131 228.439C157.533 230.841 161.428 230.841 163.83 228.439C166.232 226.037 166.232 222.142 163.83 219.74C161.428 217.338 157.533 217.338 155.131 219.74C152.729 222.142 152.729 226.037 155.131 228.439ZM138.7 253.569C136.298 255.972 132.403 255.972 130.001 253.569C127.599 251.167 127.599 247.273 130.001 244.871C132.403 242.468 136.298 242.468 138.7 244.871C141.102 247.273 141.102 251.167 138.7 253.569ZM104.871 278.7C107.273 281.102 111.167 281.102 113.57 278.7C115.972 276.298 115.972 272.403 113.57 270.001C111.167 267.599 107.273 267.599 104.871 270.001C102.468 272.403 102.468 276.298 104.871 278.7ZM88.4394 303.83C86.0372 306.232 82.1426 306.232 79.7404 303.83C77.3383 301.428 77.3383 297.533 79.7404 295.131C82.1426 292.729 86.0372 292.729 88.4394 295.131C90.8415 297.533 90.8415 301.428 88.4394 303.83ZM54.61 328.96C57.0122 331.363 60.9068 331.363 63.309 328.96C65.7111 326.558 65.7111 322.664 63.309 320.261C60.9068 317.859 57.0122 317.859 54.61 320.261C52.2079 322.664 52.2079 326.558 54.61 328.96ZM214.091 228.439C211.688 230.841 207.794 230.841 205.392 228.439C202.99 226.037 202.99 222.142 205.392 219.74C207.794 217.338 211.688 217.338 214.091 219.74C216.493 222.142 216.493 226.037 214.091 228.439ZM180.261 253.569C182.664 255.972 186.558 255.972 188.96 253.569C191.362 251.167 191.362 247.273 188.96 244.871C186.558 242.468 182.664 242.468 180.261 244.871C177.859 247.273 177.859 251.167 180.261 253.569ZM163.83 278.7C161.428 281.102 157.533 281.102 155.131 278.7C152.729 276.298 152.729 272.403 155.131 270.001C157.533 267.599 161.428 267.599 163.83 270.001C166.232 272.403 166.232 276.298 163.83 278.7ZM130.001 303.83C132.403 306.232 136.298 306.232 138.7 303.83C141.102 301.428 141.102 297.533 138.7 295.131C136.298 292.729 132.403 292.729 130.001 295.131C127.599 297.533 127.599 301.428 130.001 303.83ZM113.57 328.96C111.167 331.362 107.273 331.362 104.871 328.96C102.469 326.558 102.469 322.664 104.871 320.261C107.273 317.859 111.167 317.859 113.57 320.261C115.972 322.664 115.972 326.558 113.57 328.96ZM79.7404 354.091C82.1426 356.493 86.0372 356.493 88.4394 354.091C90.8415 351.688 90.8415 347.794 88.4394 345.392C86.0372 342.99 82.1426 342.99 79.7404 345.392C77.3383 347.794 77.3383 351.688 79.7404 354.091ZM239.221 253.569C236.819 255.972 232.924 255.972 230.522 253.569C228.12 251.167 228.12 247.273 230.522 244.871C232.924 242.468 236.819 242.468 239.221 244.871C241.623 247.273 241.623 251.167 239.221 253.569ZM205.392 278.7C207.794 281.102 211.688 281.102 214.091 278.7C216.493 276.298 216.493 272.403 214.091 270.001C211.688 267.599 207.794 267.599 205.392 270.001C202.989 272.403 202.99 276.298 205.392 278.7ZM188.96 303.83C186.558 306.232 182.664 306.232 180.261 303.83C177.859 301.428 177.859 297.533 180.261 295.131C182.664 292.729 186.558 292.729 188.96 295.131C191.362 297.533 191.362 301.428 188.96 303.83ZM155.131 328.96C157.533 331.363 161.428 331.362 163.83 328.96C166.232 326.558 166.232 322.664 163.83 320.261C161.428 317.859 157.533 317.859 155.131 320.261C152.729 322.664 152.729 326.558 155.131 328.96ZM138.7 354.091C136.298 356.493 132.403 356.493 130.001 354.091C127.599 351.688 127.599 347.794 130.001 345.392C132.403 342.99 136.298 342.99 138.7 345.392C141.102 347.794 141.102 351.688 138.7 354.091ZM104.871 379.221C107.273 381.623 111.167 381.623 113.57 379.221C115.972 376.819 115.972 372.924 113.57 370.522C111.167 368.12 107.273 368.12 104.871 370.522C102.469 372.924 102.469 376.819 104.871 379.221ZM264.351 278.7C261.949 281.102 258.054 281.102 255.652 278.7C253.25 276.298 253.25 272.403 255.652 270.001C258.054 267.599 261.949 267.599 264.351 270.001C266.753 272.403 266.753 276.298 264.351 278.7ZM230.522 303.83C232.924 306.232 236.819 306.232 239.221 303.83C241.623 301.428 241.623 297.533 239.221 295.131C236.819 292.729 232.924 292.729 230.522 295.131C228.12 297.533 228.12 301.428 230.522 303.83ZM214.091 328.96C211.688 331.362 207.794 331.362 205.392 328.96C202.989 326.558 202.989 322.664 205.392 320.261C207.794 317.859 211.688 317.859 214.091 320.261C216.493 322.664 216.493 326.558 214.091 328.96ZM180.261 354.091C182.664 356.493 186.558 356.493 188.96 354.091C191.362 351.688 191.362 347.794 188.96 345.392C186.558 342.99 182.664 342.99 180.261 345.392C177.859 347.794 177.859 351.688 180.261 354.091ZM163.83 379.221C161.428 381.623 157.533 381.623 155.131 379.221C152.729 376.819 152.729 372.924 155.131 370.522C157.533 368.12 161.428 368.12 163.83 370.522C166.232 372.924 166.232 376.819 163.83 379.221ZM130.001 404.351C132.403 406.753 136.298 406.753 138.7 404.351C141.102 401.949 141.102 398.054 138.7 395.652C136.298 393.25 132.403 393.25 130.001 395.652C127.599 398.054 127.599 401.949 130.001 404.351Z" fill="#1DE9B6"/>
</svg>
