<svg width="80" height="76" viewBox="0 0 80 76" fill="none" xmlns="http://www.w3.org/2000/svg">
<path d="M80 59.1719V0.689697H0V59.1719H29.587V65.1541C29.587 68.1695 27.1337 70.6228 24.1183 70.6228H18.4822V75.3103H61.5178V70.6228H55.8817C52.8662 70.6228 50.413 68.1695 50.413 65.1541V59.1719H80ZM75.3125 5.3772V43.7255H4.6875V5.3772H75.3125ZM4.6875 54.4844V48.413H75.3125V54.4844H4.6875ZM47.3303 70.6228H32.6697C33.6836 69.0428 34.2745 67.1667 34.2745 65.1541V59.1719H45.7255V65.1541C45.7255 67.1667 46.3162 69.043 47.3303 70.6228Z" fill="#3D5AFE"/>
<path d="M10.7541 11.4412H15.4514V16.1287H10.7541V11.4412Z" fill="#3D5AFE"/>
<path d="M10.7541 22.2002H15.4514V26.8877H10.7541V22.2002Z" fill="#3D5AFE"/>
<path d="M10.7541 32.959H15.4514V37.6465H10.7541V32.959Z" fill="#3D5AFE"/>
<path d="M21.513 11.4412H69.2459V16.1287H21.513V11.4412Z" fill="#3D5AFE"/>
<path d="M21.513 22.2002H58.487V26.8877H21.513V22.2002Z" fill="#3D5AFE"/>
<path d="M21.513 32.959H69.2459V37.6465H21.513V32.959Z" fill="#3D5AFE"/>
</svg>
