<svg width="160" height="70" viewBox="0 0 160 70" fill="none" xmlns="http://www.w3.org/2000/svg">
<path fill-rule="evenodd" clip-rule="evenodd" d="M152.418 20.5129C152.659 20.5129 153.053 20.5114 153.294 20.5097L154.668 20.5005C154.908 20.4988 154.987 20.6582 154.842 20.8541L141.761 38.5327C141.615 38.7286 141.448 39.0839 141.388 39.3215L140.376 43.3288C140.316 43.5667 140.07 43.7614 139.829 43.7614H134.71C134.468 43.7614 134.32 43.5666 134.38 43.3288L135.392 39.3215C135.451 39.0839 135.447 38.6961 135.381 38.4603L133.059 30.1805C132.993 29.9447 133.136 29.7523 133.377 29.7523H138.558C138.798 29.7523 139.04 29.9473 139.093 30.1869L139.686 32.8353C139.74 33.074 139.895 33.1042 140.031 32.9011L148.089 20.8811C148.225 20.6786 148.533 20.5129 148.774 20.5129H152.418ZM112.14 30.8744L112.14 30.8792C112.324 29.3674 111.796 28.0223 109.093 28.022C106.692 28.022 105.414 29.1366 104.787 30.8346L104.757 30.9486L104.756 30.9535L104.755 30.9592L104.754 30.9626C104.754 30.9653 104.754 30.9681 104.753 30.971C104.755 30.9695 104.757 30.969 104.757 30.969C104.756 30.9705 104.756 30.972 104.755 30.9735C104.754 30.9769 104.753 30.9805 104.751 30.9845C104.718 31.1784 104.833 31.3357 105.06 31.3357H111.628C111.868 31.3357 112.11 31.1404 112.14 30.8744ZM98.6652 33.6292C99.7859 28.3706 101.783 23.1604 110.213 23.1604L110.213 23.1609C118.187 23.1609 118.721 27.9756 116.859 35.1249L116.861 35.1235C116.856 35.1621 116.844 35.1991 116.83 35.2351C116.757 35.4212 116.573 35.5607 116.374 35.5645C116.371 35.5645 116.368 35.5659 116.365 35.5659L116.367 35.5645H104.26C104.022 35.5749 103.772 35.9629 103.775 36.1893L103.768 36.2382C103.688 38.2009 104.716 38.8897 107.534 38.8897H115.377H115.377L115.378 38.8896C115.604 38.8896 115.756 39.0625 115.734 39.282C115.733 39.2966 115.731 39.3115 115.728 39.3265L115.307 41.4228L115.238 41.7646L115.238 41.7581L115.237 41.765L114.884 43.5226C114.835 43.7605 114.6 43.9569 114.361 43.9607C113.425 43.9682 111.115 43.9861 108.811 43.9952H108.793L108.531 43.9962C108.269 43.9973 108.007 43.9984 107.749 43.9988L107.955 43.9982L107.747 43.9987H107.685L107.422 43.9993C107.388 43.9993 107.354 43.9993 107.32 43.9999H106.757C106.73 43.9999 106.702 43.9999 106.674 44.0005H106.364C97.6412 44.0005 97.5445 38.989 98.6652 33.6292ZM70.2512 31.2797L70.3699 30.8519C71.6041 26.6263 70.5815 22.9657 65.4702 23.3581C61.7297 23.6454 59.9152 26.484 58.9903 31.0501C58.0645 35.5148 58.9903 38.5412 62.7904 38.5412H67.8005C68.0421 38.5412 68.2926 38.3481 68.3579 38.1123L69.3043 34.697L70.2509 31.2811L70.2512 31.2797ZM76.7049 29.0648C76.1681 32.4383 73.8059 38.2785 73.8059 38.2785L73.8054 38.2779C73.793 38.3101 73.7843 38.3436 73.7797 38.3777C73.7548 38.5569 73.872 38.6919 74.0771 38.6933L75.1204 38.6996L76.1642 38.7057C76.4049 38.7071 76.5521 38.9024 76.4913 39.1397L75.4026 43.3696C75.3413 43.6063 75.0951 43.8008 74.8542 43.8031L68.6023 43.8261L61.913 43.8514C53.4338 43.9006 51.5826 37.8962 52.9954 31.0498C54.4084 24.2527 58.1114 18 66.6392 18C75.2159 18 77.4363 24.549 76.7049 29.0648ZM43.543 36.2422C43.5249 36.3238 43.5031 36.4233 43.4802 36.5285L43.4473 36.6773L43.4202 36.8071C43.396 36.9199 43.3733 37.0272 43.3551 37.1144L42.7071 40.219L42.0596 43.3236C41.9958 43.6134 41.9187 43.8999 41.8285 44.1822C41.8285 44.1822 40.9316 46.8999 39.4236 46.8691L39.3485 46.8678C39.3103 46.8671 39.2727 46.8665 39.2351 46.8654C38.5043 46.8514 37.9303 46.841 37.9303 46.841H37.9291C37.6887 46.8372 37.4471 47.0282 37.391 47.2664L36.8929 49.3979L36.3954 51.5282C36.3399 51.7664 36.4906 51.9632 36.7302 51.9672C37.5853 51.9775 39.5007 51.9994 40.6603 51.9994C44.4272 51.9994 46.4129 49.8742 47.6858 43.7591L49.1754 36.7409L50.5727 30.1586C50.6235 29.9196 50.4682 29.7235 50.2277 29.7235H45.4261C45.1855 29.7235 44.9448 29.9194 44.8917 30.159L44.217 33.2006L43.543 36.2422ZM46.8452 23.4059H51.6092C51.8504 23.4059 52.0053 23.6021 51.9536 23.8413V23.8419L51.5168 25.8707L51.0804 27.9009C51.0284 28.1406 50.7894 28.3365 50.5485 28.3365H45.7474C45.5063 28.3365 45.353 28.1406 45.4061 27.9018L45.8578 25.8707L46.3098 23.8405C46.3638 23.6018 46.6039 23.4059 46.8452 23.4059ZM40.6607 52.0001C39.1343 52.0001 36.7328 51.9688 36.7328 51.9688L36.7308 51.9682C37.5857 51.9786 39.5013 52.0001 40.6607 52.0001ZM98.0717 23.457H93.7336C93.493 23.457 93.2542 23.6538 93.2026 23.8934L91.6627 31.1485L90.1224 38.4039C90.0713 38.6432 89.8328 38.8394 89.5922 38.8394H86.5217C83.484 38.8394 83.8352 36.6999 84.4572 33.769L84.4758 33.6804L84.5439 33.311L84.5569 33.2415L84.6953 32.4892L84.8439 31.683C84.8892 31.4399 84.9575 31.0846 85.0028 30.8614L85.7027 27.3783L86.4034 23.8951C86.4516 23.655 86.2937 23.4576 86.0531 23.4576H81.6003C81.3597 23.4576 81.1215 23.6549 81.0721 23.8945L80.1146 28.5197L79.1572 33.1442C79.1564 33.1461 79.1562 33.1485 79.1559 33.1505L79.1559 33.1512L79.0668 33.5809C77.9643 38.7074 78.2566 43.5961 84.2502 43.7491C84.3482 43.752 84.4239 43.7529 84.4239 43.7529H93.8317C94.0723 43.7529 94.3105 43.556 94.361 43.3159L96.3897 33.6057L98.4185 23.8945C98.4683 23.6538 98.3123 23.4573 98.0717 23.457ZM114.358 43.9614L114.36 43.9608C113.083 43.9712 109.247 44.0011 106.363 44.0011C109.872 44.0011 114.357 43.9617 114.358 43.9614ZM119.303 37.5299L118.091 43.3146L118.09 43.3154C118.039 43.5555 118.196 43.7523 118.437 43.7523H118.875C118.76 43.7522 118.593 43.7295 118.448 43.6927L118.448 43.692C118.593 43.729 118.761 43.7517 118.877 43.7517H122.495C122.736 43.7517 123.041 43.7075 123.172 43.6534C123.303 43.5993 123.497 43.1174 123.545 42.8773L124.188 39.6378L124.832 36.3988L124.833 36.3925L124.863 36.2428C124.898 36.0667 124.942 35.8557 124.978 35.6798L124.978 35.6779L125.699 32.24L126.388 28.9533C126.439 28.7146 126.676 28.5192 126.916 28.5187L138.301 28.5129L138.302 28.5129L138.302 28.5134C138.542 28.5128 138.694 28.3184 138.64 28.0788L138.441 27.2417L138.44 27.2448L138.44 27.2417L138.243 26.3842L138.143 25.9502C137.753 24.4075 136.608 23.5169 134.122 23.5169L130.252 23.5126L126.688 23.5083H122.677C122.437 23.5083 122.198 23.7042 122.149 23.9444H122.148L121.971 24.7976L121.762 25.8052L121.762 25.8054L121.722 25.9972L121.696 26.1207L121.703 26.0873L119.303 37.5299ZM122.495 43.7523C122.736 43.7523 123.04 43.7079 123.172 43.6539C123.303 43.5995 123.497 43.1178 123.545 42.8778L123.458 43.3147C123.411 43.5555 123.174 43.7523 122.933 43.7523H122.495ZM124.833 36.3927L124.189 39.638L124.832 36.399C124.833 36.3976 124.833 36.3947 124.833 36.3927ZM107.367 43.9995L107.392 43.9994C107.371 43.9994 107.351 43.9995 107.331 43.9998L107.367 43.9995ZM8.426 38.3667C6.62733 34.7053 6.33441 30.2219 8.68897 26.7759L10.5269 24.4025C8.454 28.4834 9.38563 33.4529 11.9796 37.0557C12.0734 37.1869 12.1692 37.3161 12.2671 37.4454C12.2972 37.4843 12.3276 37.5228 12.3584 37.5611C12.4399 37.6668 12.5229 37.7712 12.6072 37.8746L12.6358 37.909C12.6564 37.9338 12.677 37.9586 12.6979 37.9842C12.8108 38.1201 12.9262 38.2537 13.044 38.3851L13.0609 38.4033C13.1725 38.5273 13.2861 38.6498 13.4019 38.7706C13.4235 38.7929 13.4453 38.8149 13.4672 38.837L13.511 38.8814C13.6021 38.9755 13.6947 39.068 13.7889 39.1589C13.8252 39.1949 13.861 39.2297 13.898 39.2657C14.0251 39.387 14.154 39.5065 14.2847 39.6238L14.3255 39.6583C14.4466 39.7653 14.5692 39.8706 14.6933 39.9741C14.8345 40.09 14.977 40.2042 15.1207 40.3167L15.1339 40.327L15.134 40.3271L15.1344 40.3274C15.1777 40.361 15.2215 40.3951 15.2659 40.4286C15.3744 40.51 15.4832 40.5905 15.5933 40.6696C15.6109 40.6817 15.6283 40.6944 15.6458 40.7071C15.6653 40.7213 15.685 40.7356 15.7052 40.7493C15.8194 40.8292 15.9349 40.9074 16.0516 40.9837L16.0851 41.0068C16.1177 41.0292 16.1501 41.0515 16.1829 41.0729C16.3437 41.1768 16.506 41.2781 16.67 41.3767C16.6949 41.3914 16.7201 41.4055 16.7451 41.4196L16.7452 41.4196L16.7452 41.4196L16.7453 41.4196C16.7554 41.4253 16.7656 41.431 16.7757 41.4368C16.7825 41.4406 16.7893 41.4444 16.796 41.4483C16.9193 41.5217 17.0439 41.5929 17.1697 41.6618C17.214 41.6868 17.2589 41.7103 17.3038 41.7337C17.3285 41.7467 17.3533 41.7596 17.3779 41.7728L17.4362 41.8035L17.4363 41.8035L17.4363 41.8035C17.5205 41.8479 17.6047 41.8922 17.6899 41.9345C17.862 42.0195 18.0353 42.1021 18.2096 42.1824C18.2169 42.1856 18.2241 42.1888 18.2314 42.192C18.2403 42.196 18.2492 42.2001 18.2581 42.2041C18.2736 42.2112 18.2892 42.2184 18.3051 42.2253C18.4632 42.2956 18.6225 42.363 18.783 42.4275C18.7937 42.4319 18.8044 42.4362 18.8151 42.4405C18.8247 42.4443 18.8343 42.4481 18.8439 42.4519L18.881 42.4667L18.9071 42.4772C19.0539 42.535 19.2014 42.5908 19.3498 42.6443L19.4187 42.6696C19.6278 42.7432 19.8386 42.8121 20.0507 42.8762C20.0855 42.8867 20.1202 42.8973 20.155 42.908L20.1553 42.908L20.1555 42.9081L20.1556 42.9082C20.2934 42.9504 20.4312 42.9926 20.5722 43.0252C25.2444 44.1071 30.1757 43.1354 32.9537 39.45C32.9537 39.45 29.646 48.5326 18.2582 46.4181C18.1238 46.3927 17.9932 46.3505 17.8628 46.3084C17.8197 46.2945 17.7768 46.2806 17.7337 46.2673L17.7057 46.259L17.6684 46.2475L17.6432 46.2397L17.6108 46.2299C17.4399 46.1755 17.2704 46.1203 17.1023 46.0605C16.9303 45.9992 16.7592 45.9352 16.5893 45.8683L16.5662 45.8592L16.566 45.8591L16.5658 45.8591C16.5344 45.8467 16.503 45.8343 16.4718 45.8211C16.3093 45.7558 16.1483 45.6877 15.9887 45.6169C15.8201 45.5412 15.6528 45.4626 15.4867 45.3813C15.4644 45.3698 15.4421 45.3589 15.4198 45.3482L15.3799 45.3287C15.3694 45.3233 15.3584 45.318 15.3475 45.3127L15.3423 45.3102L15.3195 45.299C15.2549 45.2663 15.1916 45.2323 15.1282 45.1983L15.0579 45.1607L15.0164 45.1391L14.9912 45.1261L14.9911 45.126C14.9458 45.1027 14.9004 45.0793 14.8559 45.0548C14.7328 44.9864 14.6116 44.917 14.4906 44.846L14.4426 44.8185C14.4137 44.802 14.3847 44.7855 14.3562 44.7686C14.192 44.6703 14.0293 44.5685 13.8694 44.4652C13.8408 44.4467 13.8126 44.4273 13.7845 44.408C13.7679 44.3965 13.7513 44.3851 13.7346 44.3739L13.7091 44.357L13.7088 44.3568L13.7087 44.3567C13.6131 44.2935 13.5174 44.2302 13.4239 44.1645C13.418 44.1605 13.4124 44.1563 13.4067 44.152L13.4067 44.152C13.4019 44.1484 13.3971 44.1448 13.392 44.1412C13.3602 44.1192 13.3296 44.0968 13.2983 44.0739L13.2753 44.0572C13.1677 43.9807 13.0612 43.9025 12.9553 43.8233L12.803 43.7054C12.7069 43.6309 12.6118 43.5552 12.5177 43.4784L12.4706 43.4404C12.4389 43.4149 12.4072 43.3893 12.3758 43.3633C12.2609 43.267 12.1462 43.1686 12.0341 43.0694L12.012 43.0503L12.0119 43.0503C11.9975 43.0379 11.9829 43.0253 11.9685 43.0124C11.8389 42.8968 11.7114 42.7788 11.586 42.6584C11.5626 42.6364 11.5391 42.6134 11.5154 42.5902L11.4736 42.5496C11.2227 42.305 10.9794 42.0526 10.7439 41.7925C10.7414 41.7888 10.7388 41.7861 10.736 41.7832L10.731 41.7778C10.6136 41.6462 10.4985 41.5125 10.3857 41.3768C10.272 41.2392 10.16 41.1 10.0498 40.9594C10.0242 40.9267 9.99869 40.8936 9.97338 40.8607L9.97335 40.8607L9.95064 40.8312C9.86142 40.7138 9.77327 40.5953 9.68767 40.4751C9.68023 40.4647 9.67261 40.4545 9.665 40.4443L9.66493 40.4442C9.65611 40.4324 9.64731 40.4206 9.63883 40.4085L9.6306 40.3973C9.53203 40.2572 9.43595 40.1155 9.34218 39.973C9.32083 39.941 9.30044 39.9084 9.27993 39.8755L9.25741 39.8396C9.18933 39.734 9.12267 39.6287 9.05796 39.5219C9.03329 39.4815 9.00923 39.4409 8.98522 39.4003L8.98515 39.4002L8.98501 39.4L8.95992 39.3577C8.90149 39.2579 8.84413 39.1583 8.78848 39.0577L8.7726 39.0292C8.7463 38.9822 8.72014 38.9355 8.69471 38.8871L8.69086 38.8803L8.69081 38.8803L8.69075 38.8801C8.67444 38.8515 8.65758 38.822 8.64214 38.7922C8.6239 38.7591 8.60695 38.725 8.59002 38.691L8.59001 38.691L8.59 38.691L8.58999 38.6909C8.57941 38.6697 8.56884 38.6484 8.55796 38.6274L8.52138 38.556C8.48918 38.4933 8.45694 38.4306 8.426 38.3667ZM15.9981 23.8727C14.2954 26.3678 14.3878 29.708 15.7161 32.3469C15.9384 32.7905 16.1901 33.2182 16.4692 33.6272C16.4992 33.671 16.5296 33.7157 16.5604 33.7611L16.5605 33.7612L16.5605 33.7612C16.7917 34.1017 17.047 34.4777 17.3459 34.7419C17.4688 34.8797 17.597 35.0137 17.7281 35.1457C17.7494 35.168 17.7711 35.1896 17.7928 35.2112L17.7928 35.2112L17.8286 35.247C17.9557 35.3727 18.0851 35.4965 18.2191 35.6163C18.2222 35.6187 18.225 35.6214 18.2278 35.624L18.2278 35.624C18.2302 35.6263 18.2325 35.6285 18.2349 35.6305C18.2366 35.6318 18.238 35.6324 18.2388 35.6342C18.3866 35.7662 18.5394 35.8934 18.6948 36.0182C18.7145 36.0335 18.7341 36.0492 18.7538 36.0651C18.7684 36.0768 18.7832 36.0887 18.7982 36.1005C18.9536 36.2219 19.1123 36.3412 19.2751 36.4551C19.2801 36.4586 19.2841 36.4621 19.2889 36.4658C19.3393 36.5014 19.3904 36.5351 19.4416 36.5689L19.5067 36.6119C19.5198 36.6206 19.5327 36.6296 19.5456 36.6385L19.5456 36.6385C19.5668 36.6532 19.5879 36.6679 19.6098 36.6812C19.7259 36.7572 19.8434 36.8311 19.9632 36.9019C19.973 36.908 19.9825 36.9134 19.9919 36.9189L19.992 36.919L20.0132 36.9315C20.1163 36.9919 20.2208 37.0514 20.3256 37.1089C20.3533 37.1248 20.3811 37.1391 20.4092 37.1536L20.437 37.1679L20.4387 37.1689C20.5104 37.2074 20.5824 37.2462 20.6553 37.283C20.6641 37.2876 20.673 37.2916 20.6817 37.2955C20.6839 37.2965 20.6862 37.2975 20.6884 37.2985C20.8384 37.3739 20.9895 37.4464 21.144 37.5149C21.1679 37.5256 21.1923 37.5355 21.2166 37.5454L21.2446 37.5568C21.3683 37.6103 21.4929 37.6624 21.6183 37.7113C21.6599 37.7274 21.702 37.743 21.7437 37.7584L21.7782 37.7712C21.8921 37.814 22.0064 37.8534 22.1214 37.8929L22.1806 37.9123C22.2126 37.9228 22.2444 37.9333 22.2768 37.9435C22.32 37.9572 22.3631 37.9718 22.4062 37.9864C22.5264 38.0272 22.6473 38.0682 22.7729 38.0896C31.5651 39.5727 33.5951 32.6798 33.5951 32.6798C31.7651 35.3632 28.2217 36.6433 24.4407 35.644C24.2229 35.5857 24.007 35.5203 23.7932 35.4481C23.6231 35.392 23.4545 35.3313 23.2876 35.266C23.1617 35.217 23.0368 35.1656 22.9127 35.1121C22.8993 35.1063 22.8859 35.1006 22.8725 35.095C22.8521 35.0864 22.8318 35.0778 22.8119 35.0686C22.6573 35.0001 22.5045 34.9278 22.3534 34.8518C22.2906 34.8207 22.2288 34.788 22.1674 34.7556L22.1234 34.7324L21.9906 34.6628C21.8928 34.6087 21.7957 34.553 21.6997 34.4957L21.672 34.48L21.6718 34.4799C21.6578 34.472 21.6438 34.464 21.6299 34.4557C21.5109 34.3847 21.3937 34.3119 21.2776 34.2365C21.2578 34.2237 21.2385 34.2103 21.2191 34.1969C21.2033 34.186 21.1875 34.175 21.1714 34.1643C21.0947 34.1138 21.0185 34.0625 20.9429 34.0104C20.7818 33.8963 20.6234 33.7783 20.4677 33.6567L20.4233 33.6211L20.4231 33.621C20.4022 33.6044 20.3813 33.5878 20.3606 33.5709C18.7054 32.2403 17.3936 30.422 16.7698 28.3601C16.1161 26.2218 16.2571 23.8213 17.3896 21.8733L15.9981 23.8727ZM21.7395 26.7374C21.0432 25.0759 21.1417 23.2076 22.1455 21.7035L22.8967 20.649C21.508 23.2037 22.8301 26.3405 24.9584 27.9847C25.3325 28.2727 25.7338 28.5221 26.1564 28.7292C26.3791 28.8377 26.6071 28.9342 26.8398 29.0183C27.0287 29.088 27.2207 29.1484 27.4153 29.1992C29.7936 29.7869 31.7321 29.3809 32.8855 27.6898C32.8502 27.7417 32.8049 27.8239 32.7472 27.9289C32.2331 28.8634 30.7282 31.599 26.3635 30.7404C26.2809 30.7246 26.2009 30.698 26.1212 30.6715C26.0976 30.6637 26.0741 30.6558 26.0505 30.6483C26.0324 30.643 26.0146 30.6371 25.9968 30.6312C25.9825 30.6265 25.9684 30.6218 25.9542 30.6175C25.9423 30.6134 25.9305 30.6093 25.9187 30.6053C25.8575 30.5842 25.7967 30.5633 25.736 30.5401C23.9795 29.8843 22.4743 28.5007 21.7395 26.7374ZM106.758 43.9999C106.731 43.9999 106.703 43.9999 106.675 44.0005C106.703 43.9999 106.731 43.9999 106.758 43.9999Z" fill="#616161"/>
</svg>
