<svg width="148" height="28" viewBox="0 0 148 28" fill="none" xmlns="http://www.w3.org/2000/svg">
<path fill-rule="evenodd" clip-rule="evenodd" d="M7.76818 14.2942C7.57109 14.8258 7.25447 15.309 6.84093 15.7093H6.84311C6.36734 16.169 5.7787 16.5056 5.13173 16.6881C4.48476 16.8705 3.80041 16.8929 3.14208 16.7531C2.48375 16.6132 1.87275 16.3157 1.36569 15.8881C0.858634 15.4606 0.471929 14.9167 0.241412 14.307C0.0108958 13.6973 -0.0559753 13.0415 0.0469954 12.4003C0.149966 11.7591 0.419448 11.1533 0.830467 10.639C1.24149 10.1247 1.78075 9.71862 2.39828 9.4583C3.0158 9.19798 3.69162 9.09187 4.3631 9.14982L4.34346 9.13092C5.03068 9.18675 5.72227 9.09758 6.36998 8.86962C7.01769 8.64167 7.6059 8.28043 8.09356 7.81112C8.58122 7.34181 8.95659 6.77573 9.19345 6.1524C9.43032 5.52907 9.52298 4.86349 9.46497 4.20214L9.48461 4.22104C9.40762 3.43015 9.58599 2.63564 9.99541 1.94589C10.4048 1.25613 11.0253 0.704691 11.7723 0.36677C12.5194 0.0288495 13.3565 -0.0791036 14.1696 0.0576337C14.9827 0.194371 15.7322 0.569142 16.3158 1.13084C16.8995 1.69254 17.2889 2.41382 17.431 3.19632C17.5731 3.97882 17.4609 4.78445 17.1098 5.50335C16.7586 6.22225 16.1856 6.81942 15.4689 7.21343C14.7522 7.60743 13.9266 7.77909 13.1048 7.705L13.1255 7.7239C12.4381 7.66775 11.7463 7.75668 11.0983 7.98449C10.4503 8.2123 9.86185 8.57349 9.37395 9.04284C8.88604 9.51219 8.51047 10.0784 8.27348 10.7019C8.03649 11.3254 7.94378 11.9911 8.00184 12.6527L7.98111 12.6338C8.03798 13.1956 7.96527 13.7625 7.76818 14.2942ZM14.1534 17.8167L14.1327 17.7978C14.7167 17.8545 15.3066 17.7855 15.8596 17.5958C16.4126 17.4062 16.9149 17.1007 17.3301 16.7014C17.7454 16.302 18.0632 15.8189 18.2607 15.2868C18.4582 14.7548 18.5303 14.1872 18.4719 13.6251L18.4926 13.644C18.4346 12.9826 18.5273 12.317 18.7641 11.6937C19.001 11.0704 19.3764 10.5043 19.864 10.035C20.3517 9.56566 20.9399 9.20442 21.5876 8.97647C22.2353 8.74852 22.9269 8.65934 23.6141 8.71517L23.5934 8.69627C24.4155 8.77057 25.2414 8.599 25.9585 8.20497C26.6755 7.81094 27.2488 7.21362 27.6002 6.4945C27.9515 5.77537 28.0638 4.96945 27.9217 4.18666C27.7796 3.40386 27.3901 2.68231 26.8062 2.1204C26.2223 1.5585 25.4726 1.18361 24.6591 1.04687C23.8457 0.910127 23.0083 1.01819 22.2611 1.35631C21.5138 1.69444 20.8931 2.24616 20.4837 2.93624C20.0743 3.62632 19.896 4.42114 19.9732 5.21231L19.9536 5.19236C20.0118 5.85376 19.9192 6.51941 19.6824 7.14283C19.4456 7.76624 19.0703 8.3324 18.5826 8.80175C18.0949 9.2711 17.5066 9.63234 16.8588 9.86022C16.211 10.0881 15.5193 10.1772 14.832 10.1211L14.8517 10.1411C14.2676 10.0845 13.6777 10.1534 13.1248 10.3431C12.5718 10.5327 12.0695 10.8382 11.6542 11.2376C11.239 11.6369 10.9211 12.12 10.7237 12.6521C10.5262 13.1841 10.4541 13.7517 10.5125 14.3139L10.4928 14.295C10.5507 14.9563 10.4579 15.6218 10.2209 16.245C9.98399 16.8683 9.60862 17.4343 9.121 17.9035C8.63338 18.3728 8.04525 18.7341 7.39763 18.9621C6.75001 19.1901 6.0585 19.2794 5.37133 19.2237L5.39097 19.2426C4.56886 19.1683 3.74295 19.3399 3.02589 19.7339C2.30883 20.128 1.73553 20.7253 1.38418 21.4444C1.03284 22.1635 0.920552 22.9695 1.06264 23.7523C1.20473 24.5351 1.59428 25.2566 2.17816 25.8185C2.76203 26.3804 3.5118 26.7553 4.32521 26.892C5.13861 27.0288 5.97605 26.9207 6.72329 26.5826C7.47053 26.2445 8.0912 25.6928 8.50064 25.0027C8.91008 24.3126 9.08836 23.5178 9.01116 22.7266L9.03189 22.7455C8.97388 22.0842 9.06654 21.4186 9.3034 20.7952C9.54027 20.1719 9.91563 19.6058 10.4033 19.1365C10.891 18.6672 11.4792 18.306 12.1269 18.078C12.7746 17.8501 13.4662 17.7609 14.1534 17.8167ZM22.2023 12.2884C21.7888 12.6888 21.4721 13.172 21.2749 13.7036C21.0776 14.2352 21.0046 14.8021 21.061 15.3639L21.0414 15.3451C21.0994 16.0064 21.0067 16.672 20.7698 17.2953C20.533 17.9186 20.1576 18.4847 19.6699 18.954C19.1823 19.4233 18.5941 19.7846 17.9464 20.0125C17.2987 20.2405 16.6071 20.3297 15.9198 20.2738L15.9395 20.2927C15.1174 20.2191 14.2918 20.3913 13.5752 20.7857C12.8585 21.1802 12.2857 21.7778 11.9349 22.497C11.5841 23.2163 11.4723 24.0221 11.6148 24.8047C11.7573 25.5873 12.1472 26.3086 12.7313 26.8701C13.3153 27.4317 14.0651 27.8062 14.8784 27.9427C15.6918 28.0791 16.529 27.9708 17.2761 27.6326C18.0231 27.2943 18.6435 26.7425 19.0528 26.0525C19.4621 25.3625 19.6402 24.5677 19.5629 23.7767L19.5837 23.7956C19.5257 23.1342 19.6183 22.4687 19.8552 21.8453C20.0921 21.222 20.4674 20.6559 20.9551 20.1866C21.4427 19.7173 22.031 19.3561 22.6787 19.1281C23.3264 18.9002 24.018 18.811 24.7052 18.8668L24.6845 18.8479C25.356 18.906 26.0318 18.8001 26.6495 18.5399C27.2671 18.2797 27.8065 17.8736 28.2176 17.3594C28.6288 16.8452 28.8984 16.2394 29.0015 15.5982C29.1045 14.957 29.0378 14.3011 28.8073 13.6913C28.5769 13.0815 28.1902 12.5376 27.6832 12.11C27.1762 11.6823 26.5652 11.3847 25.9068 11.2448C25.2485 11.1049 24.5641 11.1272 23.9171 11.3097C23.27 11.4921 22.6813 11.8288 22.2055 12.2884H22.2023ZM40.6393 5.23645H43.8797V20.4124H40.6393V5.23645ZM46.6686 12.149C46.0423 13.0579 45.7104 14.1252 45.7149 15.2158C45.7094 15.9398 45.8538 16.6576 46.1398 17.3272C46.4259 17.9968 46.8477 18.6048 47.3807 19.1157C47.9138 19.6267 48.5473 20.0302 49.2442 20.3028C49.9412 20.5753 50.6876 20.7115 51.4398 20.7032C52.5731 20.7032 53.6808 20.3795 54.6227 19.7731C55.5647 19.1668 56.2984 18.305 56.7311 17.297C57.1637 16.289 57.2757 15.1801 57.0529 14.1108C56.8302 13.0415 56.2827 12.0598 55.4797 11.2902C54.6768 10.5206 53.6546 9.9976 52.5426 9.78752C51.4305 9.57743 50.2787 9.68968 49.2331 10.1101C48.1874 10.5304 47.2949 11.24 46.6686 12.149ZM53.4722 13.9053C53.7535 14.2899 53.9107 14.7457 53.9242 15.2158C53.9424 15.5375 53.8911 15.8594 53.7737 16.1611C53.6562 16.4627 53.475 16.7377 53.2416 16.9687C53.0082 17.1996 52.7276 17.3815 52.4175 17.5029C52.1073 17.6243 51.7745 17.6825 51.4398 17.6739C50.9512 17.6739 50.4733 17.5353 50.0661 17.2754C49.6588 17.0155 49.3402 16.6459 49.1501 16.2127C48.9599 15.7795 48.9067 15.3019 48.997 14.8398C49.0874 14.3776 49.3173 13.9513 49.658 13.6142C49.9987 13.2771 50.4351 13.0441 50.9127 12.9444C51.3902 12.8447 51.8877 12.8827 52.343 13.0536C52.7982 13.2245 53.191 13.5208 53.4722 13.9053ZM70.0798 10.0181V19.8883C70.0798 23.3807 67.2495 24.857 64.3767 24.857C63.3653 24.9298 62.3525 24.7332 61.4494 24.2887C60.5464 23.8442 59.788 23.1689 59.2574 22.337L62.0222 20.7987C62.2452 21.2323 62.6005 21.5901 63.0406 21.8241C63.4807 22.0581 63.9846 22.1572 64.4848 22.108C64.8044 22.1507 65.13 22.1236 65.4373 22.0288C65.7447 21.934 66.0259 21.7739 66.2603 21.5603C66.4946 21.3468 66.6761 21.0853 66.7912 20.7951C66.9064 20.505 66.9523 20.1936 66.9255 19.8841V18.9338C66.546 19.3807 66.063 19.7357 65.5153 19.9703C64.9675 20.205 64.3701 20.3129 63.7712 20.2852C62.346 20.242 60.9943 19.6667 60.0021 18.6813C59.0098 17.6958 58.455 16.3774 58.455 15.0052C58.455 13.633 59.0098 12.3146 60.0021 11.3292C60.9943 10.3437 62.346 9.76845 63.7712 9.72519C64.3701 9.69753 64.9675 9.80537 65.5153 10.0401C66.063 10.2747 66.546 10.6297 66.9255 11.0766V10.016L70.0798 10.0181ZM66.9266 15.0068C66.9484 14.5042 66.8134 14.0068 66.5389 13.5787C66.2645 13.1506 65.8632 12.8113 65.3868 12.6045C64.9103 12.3977 64.3804 12.3329 63.8653 12.4184C63.3502 12.5039 62.8735 12.7357 62.4965 13.0842C62.1195 13.4326 61.8595 13.8816 61.7499 14.3734C61.6403 14.8653 61.6862 15.3774 61.8816 15.844C62.077 16.3105 62.4131 16.7101 62.8465 16.9913C63.2799 17.2725 63.7908 17.4224 64.3135 17.4218C64.6539 17.4447 64.9956 17.3987 65.3165 17.2867C65.6374 17.1748 65.9303 16.9994 66.1765 16.7719C66.4227 16.5444 66.6166 16.2698 66.7458 15.9658C66.875 15.6618 66.9366 15.3351 66.9266 15.0068ZM72.8685 12.149C72.2422 13.0579 71.9104 14.1252 71.9149 15.2158C71.9093 15.9398 72.0538 16.6576 72.3398 17.3272C72.6258 17.9968 73.0477 18.6048 73.5807 19.1157C74.1137 19.6267 74.7472 20.0302 75.4442 20.3028C76.1411 20.5753 76.8875 20.7115 77.6398 20.7032C78.773 20.7032 79.8808 20.3795 80.8227 19.7731C81.7646 19.1668 82.4984 18.305 82.931 17.297C83.3636 16.289 83.4757 15.1801 83.2529 14.1108C83.0301 13.0415 82.4826 12.0598 81.6797 11.2902C80.8768 10.5206 79.8545 9.9976 78.7425 9.78752C77.6305 9.57743 76.4787 9.68968 75.433 10.1101C74.3873 10.5304 73.4948 11.24 72.8685 12.149ZM79.6722 13.9053C79.9534 14.2899 80.1106 14.7457 80.1241 15.2158C80.1423 15.5375 80.0911 15.8594 79.9736 16.1611C79.8561 16.4627 79.675 16.7377 79.4416 16.9687C79.2081 17.1996 78.9275 17.3815 78.6174 17.5029C78.3073 17.6243 77.9744 17.6825 77.6398 17.6739C77.1511 17.6739 76.6733 17.5353 76.266 17.2754C75.8588 17.0155 75.5402 16.6459 75.35 16.2127C75.1599 15.7795 75.1067 15.3019 75.197 14.8398C75.2873 14.3776 75.5172 13.9513 75.8579 13.6142C76.1987 13.2771 76.6351 13.0441 77.1126 12.9444C77.5902 12.8447 78.0877 12.8827 78.5429 13.0536C78.9981 13.2245 79.3909 13.5208 79.6722 13.9053ZM84.8758 7.23258C84.8758 6.86251 84.9898 6.50075 85.2035 6.19304C85.4171 5.88533 85.7208 5.6455 86.076 5.50388C86.4313 5.36226 86.8223 5.32521 87.1994 5.3974C87.5766 5.4696 87.923 5.64781 88.1949 5.9095C88.4668 6.17118 88.652 6.50458 88.727 6.86754C88.8021 7.23051 88.7635 7.60673 88.6164 7.94864C88.4692 8.29054 88.22 8.58277 87.9003 8.78837C87.5805 8.99397 87.2046 9.10372 86.8201 9.10372C86.306 9.09879 85.8144 8.90008 85.4509 8.55023C85.0874 8.20039 84.8809 7.72731 84.8758 7.23258ZM85.2031 10.0183H88.4447V20.4135H85.1987L85.2031 10.0183ZM102.131 17.2385C102.37 16.5903 102.474 15.9029 102.437 15.2159C102.474 14.5288 102.371 13.8413 102.131 13.1929C101.892 12.5445 101.521 11.9482 101.042 11.4381C100.562 10.9279 99.9819 10.5142 99.3352 10.2206C98.6886 9.92707 97.988 9.75946 97.2738 9.72747C96.6733 9.69596 96.0732 9.79332 95.5167 10.0125C94.9602 10.2317 94.4613 10.5673 94.0562 10.9948V10.0183H90.8157V24.5705H94.0562V19.4349C94.4611 19.8628 94.9599 20.1986 95.5164 20.418C96.073 20.6374 96.6732 20.7348 97.2738 20.7033C97.9878 20.6712 98.6883 20.5035 99.3348 20.21C99.9813 19.9164 100.561 19.5028 101.041 18.9928C101.521 18.4828 101.891 17.8866 102.131 17.2385ZM98.732 13.8587C99.0221 14.2573 99.1836 14.7294 99.1962 15.2159C99.2204 15.5495 99.171 15.8843 99.0514 16.1983C98.9317 16.5123 98.7444 16.7983 98.5018 17.0378C98.2592 17.2772 97.9667 17.4646 97.6436 17.5876C97.3204 17.7107 96.9739 17.7666 96.6267 17.7517C96.1211 17.7518 95.6266 17.6083 95.2052 17.3392C94.7839 17.0702 94.4543 16.6875 94.2578 16.239C94.0614 15.7906 94.0067 15.2964 94.1006 14.8182C94.1946 14.34 94.433 13.8992 94.7861 13.5507C95.1391 13.2023 95.5911 12.9619 96.0855 12.8594C96.5798 12.757 97.0946 12.7972 97.5653 12.9749C98.0361 13.1527 98.4419 13.4601 98.732 13.8587ZM112.436 17.2938C112.436 19.6847 110.277 20.7032 107.944 20.7032C107.002 20.7854 106.055 20.5935 105.227 20.1525C104.399 19.7115 103.728 19.0416 103.3 18.2294L106.107 16.6911C106.221 17.0665 106.465 17.3931 106.798 17.6163C107.132 17.8395 107.535 17.9458 107.94 17.9175C108.717 17.9175 109.106 17.6886 109.106 17.2738C109.106 16.8611 108.415 16.6757 107.531 16.4387C105.964 16.0185 103.792 15.436 103.792 13.1368C103.792 10.8698 105.78 9.72737 108.026 9.72737C108.871 9.70165 109.707 9.89443 110.448 10.2856C111.188 10.6767 111.807 11.252 112.238 11.9513L109.473 13.3856C109.352 13.1133 109.15 12.8814 108.893 12.7188C108.635 12.5562 108.334 12.47 108.026 12.4711C107.464 12.4711 107.118 12.6811 107.118 13.0528C107.12 13.4758 107.798 13.6472 108.669 13.8675C110.239 14.2645 112.436 14.8202 112.436 17.2938ZM124.273 20.4134V10.0182L121.036 10.0213V15.6914C121.036 17.1678 120.216 17.8324 119.028 17.8324C118.769 17.8475 118.511 17.8083 118.27 17.7175C118.029 17.6267 117.812 17.4864 117.633 17.3065C117.454 17.1266 117.318 16.9114 117.234 16.6758C117.151 16.4403 117.122 16.19 117.149 15.9424V10.0182H113.908V16.3991C113.908 19.2079 115.763 20.7042 117.945 20.7042C118.527 20.7428 119.111 20.648 119.648 20.4275C120.184 20.207 120.659 19.8671 121.033 19.4358V20.4134H124.273ZM142.855 14.0303V20.4123H139.614V14.3001C139.614 13.2606 139.096 12.596 138.059 12.596C136.979 12.596 136.374 13.3236 136.374 14.5501V20.4123H133.134V14.3001C133.134 13.2606 132.616 12.596 131.578 12.596C130.498 12.596 129.894 13.3236 129.894 14.5501V20.4123H126.653V10.0171H129.894V10.9726C130.23 10.5487 130.67 10.2126 131.176 9.99485C131.682 9.77713 132.236 9.68479 132.788 9.72627C133.343 9.70017 133.895 9.81277 134.391 10.0531C134.886 10.2934 135.309 10.6533 135.617 11.0976C135.976 10.6328 136.452 10.2632 137 10.0234C137.548 9.78354 138.15 9.68132 138.75 9.72627C141.23 9.72732 142.855 11.4315 142.855 14.0303ZM148 7.63992C148 8.91804 146.923 9.95416 145.595 9.95416C144.267 9.95416 143.191 8.91804 143.191 7.63992C143.191 6.3618 144.267 5.32568 145.595 5.32568C146.923 5.32568 148 6.3618 148 7.63992Z" fill="#616161"/>
</svg>
