<svg width="80" height="80" viewBox="0 0 80 80" fill="none" xmlns="http://www.w3.org/2000/svg">
<path d="M69.7101 29.7076L65.3125 20.7977L60.9149 29.7076L51.0828 31.1365L58.1976 38.0713L56.5179 47.8644L65.3125 43.241L74.1071 47.8644L72.4274 38.0713L79.5422 31.1365L69.7101 29.7076ZM67.8815 39.2957L65.3125 37.9449L62.7435 39.2957L63.2343 36.4349L61.156 34.4092L64.0283 33.9923L65.3125 31.3898L66.5973 33.9923L69.469 34.4098L67.3907 36.4355L67.8815 39.2957Z" fill="#3D5AFE"/>
<path d="M19.0851 29.7076L14.6875 20.7977L10.2924 29.7034L0.185547 31.1365L7.56836 38.0963L5.89294 47.8644L14.6875 43.241L23.4821 47.8644L21.8024 38.0713L28.9172 31.1365L19.0851 29.7076ZM17.2565 39.2957L14.6875 37.9449L12.1185 39.2957L12.6135 36.4105L10.4907 34.4092L13.4009 33.9966L14.6875 31.3898L15.9723 33.9923L18.844 34.4098L16.7657 36.4355L17.2565 39.2957Z" fill="#3D5AFE"/>
<path d="M42.3438 56.5625H32.9688V61.25H37.6562V65.9375H32.9688V70.625H47.0312V65.9375H42.3438V56.5625Z" fill="#3D5AFE"/>
<path d="M80 80V61.25H56.4062V47.1875H23.5938V56.5625H0V80H80ZM75.3125 65.9375V75.3125H56.4062V65.9375H75.3125ZM28.2812 51.875H51.7188V75.3125H28.2812V51.875ZM4.6875 75.3125V61.25H23.5938V75.3125H4.6875Z" fill="#3D5AFE"/>
<path d="M46.5704 27.3657C47.5616 26.1877 48.5748 24.9823 49.4159 23.7488C52.5323 23.7378 55.4724 22.4518 57.6984 20.1239C59.8877 17.8333 61.0938 14.848 61.0938 11.7188V4.6875H51.7188V0H28.2812V4.6875H18.9062V11.7188C18.9062 14.848 20.1123 17.8333 22.3016 20.1239C24.5276 22.4518 27.4677 23.7378 30.5841 23.7488C31.4252 24.9823 32.4384 26.1877 33.4296 27.3657C35.5072 29.8358 37.6562 32.3895 37.6562 34.5209V37.8125H32.9688V42.5H47.0312V37.8125H42.3438V34.5209C42.3438 32.3895 44.4928 29.8358 46.5704 27.3657ZM56.4062 9.375V11.7188C56.4062 14.9084 54.3384 17.6996 51.5552 18.6835C51.6638 18.0402 51.7188 17.3846 51.7188 16.7188V9.375H56.4062ZM23.5938 11.7188V9.375H28.2812V16.7188C28.2812 17.3846 28.3362 18.0402 28.4448 18.6835C25.6616 17.6996 23.5938 14.9084 23.5938 11.7188ZM37.0166 24.3481C35.6549 22.7295 34.3683 21.2006 33.6896 19.8242C33.2111 18.855 32.9688 17.8101 32.9688 16.7188V4.6875H47.0312V16.7188C47.0312 17.8101 46.7889 18.855 46.3104 19.8242C45.6317 21.2006 44.3451 22.7295 42.9834 24.3481C41.9739 25.5481 40.9094 26.8134 40 28.1482C39.0906 26.8134 38.0261 25.5481 37.0166 24.3481Z" fill="#3D5AFE"/>
</svg>
