<svg width="161" height="70" viewBox="0 0 161 70" fill="none" xmlns="http://www.w3.org/2000/svg">
<path d="M113.413 40.1697C110.126 40.1881 107.281 40.9718 104.894 42.1386C104.013 40.4068 103.131 38.8936 102.985 37.7636C102.819 36.4511 102.618 35.6488 102.819 34.0813C103.021 32.5134 103.939 30.2895 103.939 30.1072C103.921 29.9431 103.737 29.141 101.846 29.1228C99.9554 29.1046 98.3212 29.4874 98.1376 29.9796C97.954 30.4718 97.5869 31.602 97.3482 32.7686C97.0177 34.4822 93.5662 40.5525 91.6017 43.7426C90.9591 42.503 90.4083 41.4093 90.298 40.5341C90.1329 39.2218 89.9308 38.4195 90.1329 36.852C90.3349 35.2841 91.2529 33.0603 91.2529 32.878C91.2345 32.714 91.0509 31.9119 89.1601 31.8936C87.2689 31.8754 85.6351 32.2582 85.4515 32.7504C85.2679 33.2426 85.0659 34.4093 84.662 35.5395C84.2763 36.6697 79.6865 46.8051 78.4931 49.4483C77.8872 50.7973 77.355 51.8728 76.9693 52.602C76.5837 53.3311 76.9509 52.6567 76.9142 52.7296C76.5837 53.3494 76.4001 53.6957 76.4001 53.6957V53.7141C76.1431 54.1699 75.8677 54.6072 75.739 54.6072C75.6472 54.6072 75.4636 53.3858 75.7757 51.7089C76.455 48.1905 78.1074 42.7037 78.0892 42.5032C78.0892 42.412 78.4011 41.4457 77.0242 40.9537C75.6839 40.4615 75.2068 41.2818 75.0964 41.2818C74.9863 41.2818 74.8945 41.5735 74.8945 41.5735C74.8945 41.5735 76.3816 35.394 72.0488 35.394C69.3316 35.394 65.5863 38.3289 63.732 41.0086C62.557 41.6466 60.0601 42.9954 57.4164 44.4357C56.4066 44.9825 55.3601 45.5659 54.3687 46.0945L54.1669 45.8754C48.9162 40.3155 39.204 36.378 39.608 28.9041C39.7548 26.1879 40.7095 19.0238 58.2613 10.3468C72.6367 3.23739 84.148 5.18791 86.149 9.52645C88.9947 15.7244 79.9986 27.2452 65.0542 28.9041C59.3628 29.5421 56.3701 27.3546 55.6175 26.5343C54.8281 25.6775 54.7179 25.641 54.4242 25.8051C53.9468 26.0603 54.2406 26.8259 54.4242 27.2817C54.8648 28.4301 56.7007 30.4718 59.8218 31.4926C62.5572 32.3858 69.2402 32.878 77.3183 29.7791C86.3695 26.2973 93.4378 16.6358 91.3632 8.56031C89.2519 0.338952 75.5191 -2.35897 62.539 2.21656C54.8095 4.95093 46.4376 9.21656 40.4158 14.8129C33.2556 21.4483 32.1173 27.2452 32.5947 29.6514C34.2656 38.2374 46.1806 43.8337 50.954 47.9718C50.7154 48.0992 50.4951 48.2268 50.2931 48.3363C47.9064 49.5028 38.8185 54.2244 36.5419 59.219C33.9716 64.87 36.9458 68.9353 38.9287 69.4822C45.0607 71.1775 51.3396 68.1332 54.7361 63.1202C58.114 58.1072 57.7103 51.5994 56.1497 48.628L56.0945 48.5186L57.9671 47.4249C59.179 46.714 60.3724 46.0577 61.4187 45.4924C60.8314 47.0783 60.4089 48.956 60.1888 51.6903C59.9318 54.8988 61.2537 59.0549 62.9978 60.6955C63.7689 61.4063 64.6869 61.4247 65.256 61.4247C67.2755 61.4247 68.1935 59.7657 69.2033 57.7789C70.4517 55.3544 71.5533 52.5471 71.5533 52.5471C71.5533 52.5471 70.1763 60.1487 73.94 60.1487C75.3169 60.1487 76.6939 58.3804 77.3181 57.469V57.4872C77.3181 57.4872 77.3548 57.4325 77.4283 57.3049C77.5053 57.1918 77.5788 57.0764 77.6486 56.9587V56.9223C78.1994 55.9744 79.4294 53.8051 81.2654 50.214C83.6335 45.5837 85.9103 39.7869 85.9103 39.7869C85.9103 39.7869 86.1306 41.2087 86.8099 43.5421C87.2136 44.9277 88.0949 46.4405 88.7742 47.9171C88.2234 48.6827 87.8929 49.1204 87.8929 49.1204L87.9113 49.1386C87.4708 49.7219 86.9749 50.3419 86.4611 50.9615C84.5884 53.1855 82.3486 55.7195 82.0548 56.4487C81.706 57.3053 81.7794 57.9433 82.4587 58.4539C82.9544 58.8185 83.8357 58.8912 84.772 58.8185C86.4611 58.7089 87.6361 58.2898 88.2236 58.0344C89.1415 57.7063 90.188 57.2141 91.1978 56.485C93.0337 55.1362 94.1537 53.2221 94.0435 50.67C93.9884 49.2664 93.5294 47.881 92.9603 46.5685C93.1255 46.3315 93.2909 46.0943 93.456 45.8393C96.3568 41.6282 98.5966 36.9982 98.5966 36.9982C98.5966 36.9982 98.8169 38.42 99.4962 40.7534C99.8449 41.9383 100.543 43.2327 101.167 44.5088C98.4497 46.7145 96.7423 49.2666 96.1548 50.9437C95.0716 54.0426 95.9162 55.4463 97.5134 55.7744C98.2292 55.9202 99.2576 55.5921 100.028 55.264C100.983 54.9541 102.14 54.4253 103.205 53.6416C105.041 52.2926 106.803 50.415 106.711 47.8812C106.656 46.7145 106.344 45.5661 105.922 44.4723C108.235 43.5244 111.228 42.9775 115.028 43.4332C123.198 44.3812 124.814 49.4489 124.502 51.5635C124.19 53.6782 122.482 54.8447 121.913 55.2093C121.344 55.5556 121.16 55.6834 121.215 55.9385C121.289 56.3214 121.546 56.303 122.042 56.2303C122.721 56.1208 126.338 54.4985 126.485 50.5977C126.705 45.5839 121.913 40.1152 113.413 40.1697ZM50.4033 61.2608C47.7044 64.1957 43.904 65.3077 42.2884 64.3598C40.5443 63.3572 41.2234 59.0369 44.5466 55.9197C46.5662 54.0238 49.1915 52.2738 50.9173 51.1983C51.3029 50.9613 51.8904 50.6152 52.588 50.1957C52.6982 50.123 52.7716 50.0863 52.7716 50.0863C52.9001 50.0134 53.047 49.9223 53.1939 49.8311C54.424 54.2791 53.249 58.1801 50.4033 61.2608ZM70.1396 47.9353C69.2033 50.214 67.2205 56.0655 66.0271 55.7374C64.9988 55.464 64.3747 51.0343 65.825 46.6593C66.5593 44.4534 68.1199 41.8285 69.0378 40.8075C70.5251 39.1669 72.1406 38.62 72.5447 39.2945C73.022 40.1697 70.7271 46.5134 70.1396 47.9353ZM86.4244 55.6645C86.0205 55.8652 85.6533 56.0108 85.488 55.9016C85.3595 55.8287 85.6531 55.5553 85.6531 55.5553C85.6531 55.5553 87.691 53.386 88.4988 52.3834C88.9578 51.8003 89.5085 51.1258 90.096 50.36V50.5787C90.0962 53.2035 87.5626 54.9535 86.4244 55.6645ZM98.982 52.8207C98.6882 52.602 98.7251 51.9275 99.7164 49.8129C100.102 48.9744 100.983 47.5707 102.507 46.24C102.691 46.7869 102.801 47.3153 102.782 47.8077C102.764 51.089 100.414 52.3103 98.982 52.8207Z" fill="#616161"/>
</svg>
