<svg width="80" height="80" viewBox="0 0 80 80" fill="none" xmlns="http://www.w3.org/2000/svg">
<path d="M75.1807 4.81927C72.0731 1.71147 67.9412 0 63.5462 0C59.1512 0 55.0193 1.71147 51.9115 4.81927L21.3093 35.4215L21.9585 54.7253L18.2372 58.4466L18.0962 54.2547L13.4092 54.4123L13.6974 62.9864L10.4607 66.2233L10.3197 62.0314L5.63264 62.1893L5.92106 70.7631L0 76.6838L3.31618 80L9.23708 74.0791L17.8109 74.3677L17.9688 69.6807L13.7768 69.5396L17.0136 66.3027L25.5877 66.591L25.7453 61.904L21.5533 61.763L25.2747 58.0416L44.5785 58.6908L75.1807 28.0886C78.2885 24.9808 80 20.8489 80 16.4539C80 12.059 78.2885 7.9269 75.1807 4.81927ZM26.0648 37.2983L42.4456 20.9176V34.2382L26.4985 50.1854L26.0648 37.2983ZM54.7259 28.5903H68.0466L54.808 41.8289H41.4873L54.7259 28.5903ZM42.7016 53.9352L29.8145 53.5017L36.7975 46.5187H50.1181L42.7016 53.9352ZM72.6548 23.9004H59.4159L65.7278 17.5886L62.4116 14.2724L47.1356 29.5484V16.2277L55.2279 8.13544C57.4497 5.91356 60.404 4.68983 63.5462 4.68983C66.6884 4.68983 69.6427 5.91356 71.8646 8.13544C74.0864 10.3573 75.3102 13.3114 75.3102 16.4538C75.3102 19.2009 74.3747 21.8043 72.6548 23.9004Z" fill="#3D5AFE"/>
</svg>
