<svg width="80" height="80" viewBox="0 0 80 80" fill="none" xmlns="http://www.w3.org/2000/svg">
<path d="M75.4605 54.7733C71.7897 49.8652 66.3933 46.935 61.0253 46.935C59.0247 46.935 57.122 47.3573 55.4142 48.167L50.5555 41.6697L65.4653 21.7005C67.7717 18.6162 68.7375 14.8059 68.1841 10.9716C67.6308 7.13734 65.6277 3.75531 62.5434 1.44875L60.6059 0L40 27.5547L19.3942 0L17.4566 1.44891C11.0678 6.22687 9.75703 15.3116 14.5338 21.6991L29.4447 41.6697L24.5858 48.167C22.878 47.3572 20.9755 46.935 18.9748 46.935C13.6069 46.935 8.21063 49.8652 4.53969 54.7733C1.79281 58.4461 0.355469 62.783 0.492344 66.9855C0.635938 71.3905 2.47078 75.1295 5.65875 77.5139C7.83313 79.1402 10.4942 80 13.3538 80C18.7217 80 24.118 77.0698 27.7889 72.1617C27.7902 72.1602 40 55.8069 40 55.8069L52.21 72.16C55.882 77.0695 61.2783 79.9997 66.6463 79.9998C69.5058 79.9998 72.1667 79.1402 74.3411 77.5137C77.5294 75.1294 79.3642 71.3903 79.5077 66.9855C79.6447 62.7831 78.2073 58.4459 75.4605 54.7733ZM23.9141 69.2633C21.1931 72.9016 17.1467 75.1613 13.3538 75.1613C11.547 75.1613 9.88828 74.6348 8.55672 73.6391C6.56953 72.153 5.42313 69.7341 5.32844 66.8278C5.22719 63.7194 6.32313 60.4675 8.41438 57.6712C11.135 54.0334 15.1816 51.7736 18.9745 51.7736C20.7812 51.7736 22.44 52.3 23.7716 53.2959C25.7588 54.782 26.9052 57.2008 26.9998 60.107C27.1012 63.2153 26.0053 66.4673 23.9141 69.2633ZM18.4098 18.8027C16.8773 16.7534 16.2364 14.2178 16.6052 11.6627C16.8547 9.93281 17.5456 8.3425 18.6016 7.01984L36.9788 31.5945L32.4661 37.6289L18.4098 18.8027ZM31.7547 58.7623C31.4391 55.7553 30.3025 53.1091 28.4636 51.0614L61.3983 7.01984C62.4545 8.34234 63.1455 9.93281 63.3948 11.6627C63.7636 14.2177 63.1227 16.7534 61.5891 18.8042L31.7547 58.7623ZM48.2455 58.7623L43.0195 51.763L47.5369 45.7128L51.5367 51.0616C49.6977 53.1092 48.5611 55.7555 48.2455 58.7623ZM74.6714 66.828C74.5767 69.7341 73.4303 72.153 71.443 73.6392C70.1116 74.635 68.4528 75.1616 66.6461 75.1616C62.8536 75.1616 58.8078 72.9023 56.0872 69.2656C53.9939 66.4656 52.8987 63.215 53 60.1075C53.0948 57.2014 54.2411 54.7827 56.2284 53.2962C57.5598 52.3005 59.2186 51.7741 61.0253 51.7741C64.8184 51.7741 68.8647 54.0339 71.5858 57.6717C73.6769 60.4677 74.773 63.7194 74.6714 66.828Z" fill="#3D5AFE"/>
</svg>
