<svg width="80" height="80" viewBox="0 0 80 80" fill="none" xmlns="http://www.w3.org/2000/svg">
<path d="M80 63.4375V2.5H0V63.4375H30.4688V72.8125H25.7812V77.5H54.2188V72.8125H49.5312V63.4375H80ZM4.6875 58.75V52.5H51.875V47.8125H22.2208L34.7656 35.2677L41.7969 42.2989L61.25 22.8458V28.5938H65.9375V14.5312H51.875V19.2188H58.248L41.7969 35.6698L34.7656 28.6386L15.5917 47.8125H4.6875V7.1875H75.3125V58.75C73.4402 58.75 6.57234 58.75 4.6875 58.75ZM44.8438 72.8125H35.1562V63.4375H44.8438V72.8125Z" fill="#3D5AFE"/>
<path d="M56.5625 47.8125H61.25V52.5H56.5625V47.8125Z" fill="#3D5AFE"/>
<path d="M65.9375 47.8125H70.625V52.5H65.9375V47.8125Z" fill="#3D5AFE"/>
</svg>
