<svg width="140" height="42" viewBox="0 0 140 42" fill="none" xmlns="http://www.w3.org/2000/svg">
<path fill-rule="evenodd" clip-rule="evenodd" d="M140 4.77697L123.74 21L140 37.225L135.21 42L114.166 21L135.21 -1.18628e-05L140 4.77697ZM95.022 21L111.281 4.77696L106.494 -1.43733e-05L85.45 21L106.494 42L111.281 37.225L95.022 21ZM66.6501 21L82.9099 4.77696L78.125 -1.68534e-05L57.081 21L78.125 42L82.9099 37.225L66.6501 21ZM9.57001 21L25.8289 4.77696L21.044 -2.18436e-05L0.000917363 21L21.044 42L25.8289 37.225L9.57001 21ZM54.196 4.77696L37.937 21L54.196 37.225L49.4089 42L28.365 21L49.4089 -1.93638e-05L54.196 4.77696Z" fill="#1DE9B6"/>
</svg>
