<svg width="140" height="42" viewBox="0 0 140 42" fill="none" xmlns="http://www.w3.org/2000/svg">
<path fill-rule="evenodd" clip-rule="evenodd" d="M0 37.223L16.26 21L0 4.775L4.78992 0L25.834 21L4.78992 42L0 37.223ZM44.978 21L28.7189 37.223L33.506 42L54.55 21L33.506 0L28.7189 4.775L44.978 21ZM73.3499 21L57.0901 37.223L61.875 42L82.919 21L61.875 0L57.0901 4.775L73.3499 21ZM130.43 21L114.171 37.223L118.956 42L139.999 21L118.956 0L114.171 4.775L130.43 21ZM85.804 37.223L102.063 21L85.804 4.775L90.5911 0L111.635 21L90.5911 42L85.804 37.223Z" fill="#1DE9B6"/>
</svg>
